<svg width="20" height="17" viewBox="0 0 20 17" fill="none" xmlns="http://www.w3.org/2000/svg">
<mask id="path-1-outside-1_189_5690" maskUnits="userSpaceOnUse" x="-2.75" y="-2.5" width="25" height="23" fill="black">
<rect fill="white" x="-2.75" y="-2.5" width="25" height="23"/>
<path d="M19.0967 11.204H12.0167V16.82H7.33669V11.204H0.232688V6.572H7.33669V0.931999H12.0167V6.572H19.0967V11.204Z"/>
</mask>
<path d="M19.0967 11.204V14.0681H21.9608V11.204H19.0967ZM12.0167 11.204V8.33992H9.15261V11.204H12.0167ZM12.0167 16.82V19.6841H14.8808V16.82H12.0167ZM7.33669 16.82H4.47261V19.6841H7.33669V16.82ZM7.33669 11.204H10.2008V8.33992H7.33669V11.204ZM0.232688 11.204H-2.63139V14.0681H0.232688V11.204ZM0.232688 6.572V3.70792H-2.63139V6.572H0.232688ZM7.33669 6.572V9.43608H10.2008V6.572H7.33669ZM7.33669 0.931999V-1.93208H4.47261V0.931999H7.33669ZM12.0167 0.931999H14.8808V-1.93208H12.0167V0.931999ZM12.0167 6.572H9.15261V9.43608H12.0167V6.572ZM19.0967 6.572H21.9608V3.70792H19.0967V6.572ZM19.0967 8.33992H12.0167V14.0681H19.0967V8.33992ZM9.15261 11.204V16.82H14.8808V11.204H9.15261ZM12.0167 13.9559H7.33669V19.6841H12.0167V13.9559ZM10.2008 16.82V11.204H4.47261V16.82H10.2008ZM7.33669 8.33992H0.232688V14.0681H7.33669V8.33992ZM3.09677 11.204V6.572H-2.63139V11.204H3.09677ZM0.232688 9.43608H7.33669V3.70792H0.232688V9.43608ZM10.2008 6.572V0.931999H4.47261V6.572H10.2008ZM7.33669 3.79608H12.0167V-1.93208H7.33669V3.79608ZM9.15261 0.931999V6.572H14.8808V0.931999H9.15261ZM12.0167 9.43608H19.0967V3.70792H12.0167V9.43608ZM16.2326 6.572V11.204H21.9608V6.572H16.2326Z" fill="#17191C" mask="url(#path-1-outside-1_189_5690)"/>
</svg>
