<svg width="59" height="59" viewBox="0 0 59 59" fill="none" xmlns="http://www.w3.org/2000/svg">
<g id="vuesax/linear/buildings-2">
<g id="buildings-2">
<path id="Vector" d="M16.6919 44.0218H10.5294C7.07356 44.0218 5.3335 42.2817 5.3335 38.8259V10.551C5.3335 7.09516 7.07356 5.3551 10.5294 5.3551H20.921C24.3769 5.3551 26.1168 7.09516 26.1168 10.551V15.0218" stroke="#36445C" stroke-width="4" stroke-miterlimit="10" stroke-linecap="round" stroke-linejoin="round"/>
<path id="Vector_2" d="M42.4777 20.87V47.8401C42.4777 51.7309 40.5444 53.6884 36.6536 53.6884H22.5402C18.6494 53.6884 16.6919 51.7309 16.6919 47.8401V20.87C16.6919 16.9792 18.6494 15.0217 22.5402 15.0217H36.6536C40.5444 15.0217 42.4777 16.9792 42.4777 20.87Z" stroke="#36445C" stroke-width="4" stroke-miterlimit="10" stroke-linecap="round" stroke-linejoin="round"/>
<path id="Vector_3" d="M32.8833 15.0218V10.551C32.8833 7.09516 34.6232 5.3551 38.079 5.3551H48.4707C51.9265 5.3551 53.6666 7.09516 53.6666 10.551V38.8259C53.6666 42.2817 51.9265 44.0218 48.4707 44.0218H42.4774" stroke="#36445C" stroke-width="4" stroke-miterlimit="10" stroke-linecap="round" stroke-linejoin="round"/>
<path id="Vector_4" d="M24.6665 27.1051H34.3332" stroke="#36445C" stroke-width="4" stroke-miterlimit="10" stroke-linecap="round" stroke-linejoin="round"/>
<path id="Vector_5" d="M24.6665 34.3551H34.3332" stroke="#36445C" stroke-width="4" stroke-miterlimit="10" stroke-linecap="round" stroke-linejoin="round"/>
<path id="Vector_6" d="M29.5 53.6884V46.4384" stroke="#36445C" stroke-width="4" stroke-miterlimit="10" stroke-linecap="round" stroke-linejoin="round"/>
</g>
</g>
</svg>
