<svg width="81" height="81" viewBox="0 0 81 81" fill="none" xmlns="http://www.w3.org/2000/svg">
<rect x="0.144531" y="0.746582" width="80" height="80" rx="24" fill="#F05161" fill-opacity="0.1"/>
<g clip-path="url(#clip0_1550_5154)">
<path d="M62.6725 40.9332L55.343 23.3903L48.2709 26.3452C48.3596 25.5111 48.3596 24.3309 47.9071 23.4791C46.8955 21.589 44.5352 20.8703 42.6451 21.8819C40.7551 22.8934 40.0363 25.2538 41.0479 27.1438C41.4028 27.8093 41.9352 28.3506 42.5919 28.7144L35.0317 31.8645C34.8631 31.3321 34.6058 30.8263 34.2774 30.3738C34.3751 30.3205 34.4549 30.2584 34.5348 30.1785C34.7211 29.9922 34.8365 29.7437 34.8365 29.4775L34.801 26.5493H35.4044C35.5464 26.5493 35.6795 26.4872 35.7771 26.3896C35.8835 26.292 35.9368 26.15 35.9368 26.008L35.8303 18.2349L34.7655 18.2526L34.8631 25.4845L20.6389 25.591L20.5413 18.2349L19.4765 18.2526L19.5741 26.1411C19.583 26.4339 19.8137 26.6558 20.1065 26.6646H20.7277C20.7277 26.6913 20.7632 29.5929 20.7632 29.5929C20.772 29.9123 20.9318 30.2052 21.1891 30.3915L20.7987 31.0126C20.6478 31.2522 20.4437 31.8467 20.4437 31.8467H20.4349L18.882 37.6411L19.2902 38.9011L18.7134 39.1585C18.181 39.3981 17.7551 39.8329 17.551 40.383C17.3469 40.9332 17.3646 41.5366 17.6042 42.069L25.4927 59.6917L32.8843 56.3819C33.1505 56.2665 33.3369 56.018 33.3635 55.7252C33.3901 55.4324 33.257 55.1484 33.0174 54.9887C32.068 54.3232 31.4113 53.6045 31.2161 53.0188C30.7192 51.5458 31.5089 49.9397 32.9908 49.4428C34.4638 48.9459 36.0699 49.7356 36.5668 51.2175C36.8064 51.9185 36.7531 52.6905 36.4248 53.356C36.2828 53.64 36.3361 53.9771 36.5579 54.199C36.7709 54.4297 37.1081 54.5007 37.392 54.3676L43.5325 51.6168C43.8253 51.4926 44.0737 51.2796 44.2512 51.0134L45.1829 50.6319C45.2894 51.5103 45.6177 52.3444 46.1413 53.0632C46.0436 53.1164 45.9638 53.1874 45.8839 53.2673C45.6887 53.4536 45.5822 53.7109 45.5822 53.9771L45.6266 56.8965H45.0232C44.8812 56.8965 44.7481 56.9586 44.6505 57.0562C44.544 57.1538 44.4908 57.2958 44.4997 57.4378L44.5973 64.1373H45.6621L45.5645 57.9702L59.7886 57.8548L59.8862 64.1461H60.9511L60.8535 57.3224C60.8446 57.0296 60.6139 56.7989 60.321 56.79H59.6999C59.6999 56.7723 59.7088 56.7457 59.7088 56.7279L59.6644 53.8707C59.6644 53.5512 59.5047 53.2495 59.2385 53.0721C59.4426 52.7437 59.6023 52.4953 59.6289 52.442C59.7798 52.2113 59.8951 51.954 59.9661 51.6789L59.9838 51.6168H59.9927L61.5456 45.8136L60.9777 44.0211L61.4923 43.8082C62.6104 43.3467 63.1428 42.0778 62.6814 40.9598C62.6814 40.9509 62.6725 40.942 62.6725 40.9332ZM25.5016 36.1238L25.4129 36.2746C24.8095 37.3394 23.718 37.8097 23.7092 37.8097L23.3187 37.9694C23.3187 37.9694 23.931 41.6697 24.0996 42.7434C24.1972 43.3822 24.0818 44.0389 23.7624 44.5979C23.5317 44.9262 23.159 45.1214 22.7597 45.1214C22.4846 45.1126 22.3693 44.9706 22.3249 44.8907L20.5946 39.4868L20.2663 38.4663L19.9912 37.6145L21.4908 32.0331C21.5352 31.8734 21.6061 31.7225 21.6949 31.5805C21.6949 31.5805 21.97 31.1369 22.2805 30.6577L33.0707 30.569C33.5321 31.057 33.8693 31.6515 34.0556 32.2993L25.5016 36.1238ZM33.5764 29.513H33.5587V29.4953L22.0498 29.584C21.97 29.5929 21.899 29.5663 21.8369 29.5219V29.4154L21.8014 26.7356C21.8635 26.7001 21.9345 26.6735 22.0055 26.6735L33.5321 26.5848C33.6119 26.5759 33.6829 26.6025 33.745 26.6469L33.7894 29.4509C33.7273 29.4864 33.6474 29.513 33.5764 29.513ZM43.0977 50.6407L37.6582 53.0809C38.1818 50.9957 36.9217 48.8838 34.8365 48.3602C32.7512 47.8367 30.6393 49.0967 30.1158 51.182C29.9295 51.9008 29.9649 52.6639 30.1957 53.3649C30.4974 54.2434 31.3048 55.0242 32.0413 55.5921L26.0163 58.2896L18.5626 41.6342C18.4383 41.3591 18.4295 41.0485 18.5448 40.7646C18.6513 40.4806 18.8642 40.2588 19.1393 40.1346L19.6096 39.9216L21.3488 45.3433C21.615 45.8491 22.1297 46.1774 22.7065 46.1863C22.7065 46.1863 24.0907 46.2129 24.6586 45.1569V45.1392C25.1023 44.3583 25.2709 43.4532 25.1289 42.5659C24.9958 41.714 24.632 39.4868 24.4811 38.5906C25.191 38.2001 25.7944 37.6322 26.2381 36.9579L35.2447 32.9204C35.2447 32.9204 35.4931 32.7785 35.6883 32.8228C35.8037 32.8672 35.9102 33.0003 35.9634 33.1157L38.7497 39.4868C38.865 39.7796 39.1578 39.9571 39.4684 39.9393C39.779 39.9216 40.0452 39.7086 40.1428 39.4158C40.3824 38.6083 40.968 37.9606 41.7489 37.6411C43.1332 37.02 44.7659 37.6322 45.387 39.0165C45.9638 40.2943 45.4935 41.7939 44.2867 42.5126C43.5147 42.9474 42.1659 42.841 41.6247 42.7788C41.3407 42.7434 41.0568 42.8676 40.8793 43.0983C40.8793 43.1072 40.622 43.4 40.7906 43.9058L43.426 49.78C43.5236 50.0018 43.4881 50.268 43.3372 50.4544C43.284 50.5342 43.1953 50.6052 43.0977 50.6407ZM58.5996 54.0215L58.644 56.7013C58.5818 56.7457 58.5109 56.7723 58.431 56.7634L46.9044 56.8521C46.8245 56.861 46.7535 56.8344 46.6914 56.79L46.647 54.0304L58.5996 54.0215ZM58.9368 51.4038C58.8924 51.5636 58.8214 51.7144 58.7327 51.8564V51.8741C58.7327 51.8741 58.4665 52.3089 58.1559 52.7881L58.0494 52.9567H47.4457L47.3569 52.868C46.6737 52.1403 46.2655 51.1909 46.2122 50.1882L53.8967 46.9849C53.7281 47.2866 53.5683 47.606 53.4175 47.9254L54.3847 48.378C54.5799 47.9609 54.7929 47.5528 55.0147 47.1623C55.2365 46.7719 55.5382 46.4347 55.8843 46.1508C56.1416 45.9378 56.4167 45.7692 56.7184 45.6272L57.1089 45.4675L57.0467 45.0505C57.0379 45.0416 57.0112 44.8464 56.958 44.5535C56.7983 43.5952 56.4611 41.5188 56.328 40.7025C56.2304 40.0636 56.3457 39.4069 56.6652 38.8479C56.8959 38.5196 57.2686 38.3155 57.6679 38.3155C57.943 38.3244 58.0583 38.4663 58.1027 38.5551L59.6644 43.4177L59.9927 44.4382L60.4364 45.8313L58.9368 51.4038ZM61.6964 42.2109C61.5811 42.486 61.3592 42.7079 61.0842 42.8232L60.6494 43.0096L59.0699 38.0937C58.8037 37.5879 58.289 37.2684 57.7211 37.2507C56.3546 37.2862 55.7601 38.2889 55.7601 38.2889C55.3164 39.0697 55.1478 39.9748 55.2898 40.8622C55.4229 41.7229 55.7867 43.9413 55.9376 44.8375C55.7335 44.9528 55.5382 45.0859 55.3519 45.2279L44.5263 49.7534C44.4997 49.6114 42.0328 44.0566 42.0328 44.0566C42.9113 44.1187 43.9229 44.0744 44.6771 43.6751L45.0143 43.471C45.4225 43.1959 45.7774 42.8498 46.0525 42.4417L46.1679 42.2642C46.372 41.927 46.5228 41.5632 46.6204 41.1816C46.6293 41.1639 46.6293 41.1461 46.6293 41.1284H46.6382C46.7358 40.7823 46.7801 40.4274 46.7801 40.0636C46.7801 39.6731 46.718 39.2738 46.6027 38.9011C45.9638 36.8514 43.7809 35.7156 41.7311 36.3545C40.7462 36.665 39.921 37.3572 39.4418 38.28L38.8118 36.8691C38.6077 36.3633 37.2501 33.3819 36.9484 32.6897C36.8774 32.5566 36.7975 32.4235 36.6999 32.3082L43.7188 29.4154C44.0116 29.2912 44.1891 28.9984 44.1714 28.6878C44.1625 28.3772 43.9495 28.111 43.6567 28.0223C42.1659 27.5697 41.323 25.9991 41.7755 24.4995C41.8199 24.3575 41.8731 24.2244 41.9352 24.0913C42.2813 23.3637 42.9202 22.8136 43.7011 22.6006C44.9788 22.2368 46.3365 22.8047 46.9665 23.976C47.3835 24.7569 47.2416 26.0967 47.1617 26.638C47.1262 26.9309 47.2416 27.2148 47.4723 27.3923C47.703 27.5697 48.0047 27.6141 48.2709 27.4988L54.7663 24.7835L61.6876 41.3413C61.8118 41.6164 61.8118 41.9359 61.6964 42.2109Z" fill="#F05161" stroke="#F05161" stroke-width="0.5"/>
<path d="M29.3251 59.9316L28.3789 60.4199L29.6079 62.8012L30.5541 62.3129L29.3251 59.9316Z" fill="#F05161" stroke="#F05161" stroke-width="0.5"/>
<path d="M21.9262 59.9745L20.6973 62.3557L21.6435 62.844L22.8724 60.4628L21.9262 59.9745Z" fill="#F05161" stroke="#F05161" stroke-width="0.5"/>
<path d="M25.1045 61.4997L25.0391 64.1787L26.1036 64.2047L26.169 61.5257L25.1045 61.4997Z" fill="#F05161" stroke="#F05161" stroke-width="0.5"/>
<path d="M51.8368 19.7378L50.8906 20.2261L52.1196 22.6073L53.0658 22.119L51.8368 19.7378Z" fill="#F05161" stroke="#F05161" stroke-width="0.5"/>
<path d="M59.8032 19.7735L58.5742 22.1548L59.5204 22.6431L60.7494 20.2619L59.8032 19.7735Z" fill="#F05161" stroke="#F05161" stroke-width="0.5"/>
<path d="M55.2823 18.3501L55.2168 21.0291L56.2813 21.0551L56.3468 18.3761L55.2823 18.3501Z" fill="#F05161" stroke="#F05161" stroke-width="0.5"/>
</g>
<defs>
<clipPath id="clip0_1550_5154">
<rect width="46" height="46" fill="white" transform="translate(17.125 18.2349)"/>
</clipPath>
</defs>
</svg>
