<svg width="80" height="81" viewBox="0 0 80 81" fill="none" xmlns="http://www.w3.org/2000/svg">
<rect y="0.746582" width="80" height="80" rx="24" fill="#F05161" fill-opacity="0.1"/>
<path d="M42.824 56.3147H37.904C37.6865 56.3147 37.4779 56.2283 37.3242 56.0745C37.1704 55.9207 37.084 55.7122 37.084 55.4947V45.6547C37.084 45.4372 37.1704 45.2286 37.3242 45.0749C37.4779 44.9211 37.6865 44.8347 37.904 44.8347C38.1215 44.8347 38.33 44.9211 38.4838 45.0749C38.6376 45.2286 38.724 45.4372 38.724 45.6547V54.6747H42.004V43.1947H37.904C37.6865 43.1947 37.4779 43.1083 37.3242 42.9545C37.1704 42.8007 37.084 42.5922 37.084 42.3747C37.084 42.1572 37.1704 41.9486 37.3242 41.7949C37.4779 41.6411 37.6865 41.5547 37.904 41.5547H42.824C43.0415 41.5547 43.25 41.6411 43.4038 41.7949C43.5576 41.9486 43.644 42.1572 43.644 42.3747V55.4947C43.644 55.7122 43.5576 55.9207 43.4038 56.0745C43.25 56.2283 43.0415 56.3147 42.824 56.3147Z" fill="#F05161"/>
<path d="M53.4841 56.3149H48.5641C48.3467 56.3149 48.1381 56.2285 47.9843 56.0747C47.8305 55.9209 47.7441 55.7124 47.7441 55.4949V35.8149C47.7441 35.5974 47.8305 35.3888 47.9843 35.235C48.1381 35.0813 48.3467 34.9949 48.5641 34.9949H53.4841C53.7016 34.9949 53.9102 35.0813 54.064 35.235C54.2177 35.3888 54.3041 35.5974 54.3041 35.8149V52.2149C54.3041 52.4324 54.2177 52.6409 54.064 52.7947C53.9102 52.9485 53.7016 53.0349 53.4841 53.0349C53.2667 53.0349 53.0581 52.9485 52.9043 52.7947C52.7505 52.6409 52.6641 52.4324 52.6641 52.2149V36.6349H49.3841V54.6749H53.4841C53.7016 54.6749 53.9102 54.7613 54.064 54.915C54.2177 55.0688 54.3041 55.2774 54.3041 55.4949C54.3041 55.7124 54.2177 55.9209 54.064 56.0747C53.9102 56.2285 53.7016 56.3149 53.4841 56.3149Z" fill="#F05161"/>
<path d="M32.1638 56.3147H27.2438C27.0264 56.3147 26.8178 56.2284 26.664 56.0746C26.5102 55.9208 26.4238 55.7122 26.4238 55.4947V48.9347C26.4238 48.7173 26.5102 48.5087 26.664 48.3549C26.8178 48.2011 27.0264 48.1147 27.2438 48.1147H32.1638C32.3813 48.1147 32.5899 48.2011 32.7437 48.3549C32.8974 48.5087 32.9838 48.7173 32.9838 48.9347V55.4947C32.9838 55.7122 32.8974 55.9208 32.7437 56.0746C32.5899 56.2284 32.3813 56.3147 32.1638 56.3147ZM28.0638 54.6747H31.3438V49.7547H28.0638V54.6747Z" fill="#F05161"/>
<path d="M30.5231 36.6348C30.3056 36.6348 30.0971 36.5484 29.9433 36.3946C29.7895 36.2409 29.7031 36.0323 29.7031 35.8148C29.7031 35.5973 29.7895 35.3888 29.9433 35.235C30.0971 35.0812 30.3056 34.9948 30.5231 34.9948C33.697 34.7389 36.7681 33.7495 39.4945 32.1046C42.2209 30.4596 44.5281 28.2041 46.2343 25.5156C46.2946 25.4252 46.3722 25.3475 46.4625 25.287C46.5528 25.2265 46.6542 25.1844 46.7608 25.163C46.8674 25.1417 46.9771 25.1416 47.0838 25.1627C47.1904 25.1838 47.2919 25.2257 47.3823 25.286C47.4728 25.3463 47.5505 25.4238 47.611 25.5142C47.6715 25.6045 47.7136 25.7059 47.7349 25.8125C47.7562 25.9191 47.7563 26.0288 47.7352 26.1355C47.7141 26.2421 47.6722 26.3436 47.6119 26.434C45.7749 29.3662 43.2677 31.8201 40.2967 33.5935C37.3257 35.367 33.9759 36.4094 30.5231 36.6348Z" fill="#F05161"/>
<path d="M47.3342 31.7147C47.1304 31.7113 46.9353 31.6321 46.7867 31.4927C46.6382 31.3532 46.5469 31.1634 46.5306 30.9603L46.1042 26.0403C46.0868 25.8228 46.1565 25.6074 46.298 25.4413C46.4394 25.2752 46.6411 25.1721 46.8586 25.1547C47.0761 25.1373 47.2915 25.207 47.4576 25.3485C47.6237 25.49 47.7268 25.6916 47.7442 25.9091L48.1542 30.8291C48.1725 31.0441 48.1052 31.2577 47.9671 31.4235C47.8289 31.5893 47.631 31.6939 47.4162 31.7147H47.3342Z" fill="#F05161"/>
<path d="M42.0864 27.664C41.893 27.664 41.7057 27.5969 41.5562 27.4744C41.4067 27.3518 41.3043 27.1812 41.2664 26.9916C41.2476 26.8849 41.2501 26.7756 41.2737 26.6699C41.2974 26.5642 41.3418 26.4643 41.4043 26.3758C41.4668 26.2874 41.5462 26.2122 41.638 26.1546C41.7297 26.0971 41.8319 26.0582 41.9388 26.0404L43.3984 25.778C43.5041 25.7567 43.613 25.757 43.7186 25.7786C43.8242 25.8003 43.9243 25.8431 44.0131 25.9043C44.1018 25.9655 44.1774 26.0439 44.2352 26.1349C44.293 26.2259 44.3319 26.3276 44.3496 26.434C44.3879 26.647 44.3405 26.8666 44.2176 27.0448C44.0947 27.2229 43.9063 27.3453 43.6936 27.3852L42.2176 27.6476L42.0864 27.664Z" fill="#F05161"/>
</svg>
