<svg width="59" height="59" viewBox="0 0 59 59" fill="none" xmlns="http://www.w3.org/2000/svg">
<g id="vuesax/linear/eye">
<g id="eye">
<path id="Vector" d="M38.1515 29.5218C38.1515 34.3068 34.2848 38.1734 29.4998 38.1734C24.7148 38.1734 20.8481 34.3068 20.8481 29.5218C20.8481 24.7368 24.7148 20.8701 29.4998 20.8701C34.2848 20.8701 38.1515 24.7368 38.1515 29.5218Z" stroke="white" stroke-width="4" stroke-linecap="round" stroke-linejoin="round"/>
<path id="Vector_2" d="M29.5001 49.5076C38.0309 49.5076 45.9818 44.4809 51.5159 35.7809C53.6909 32.3734 53.6909 26.6459 51.5159 23.2384C45.9818 14.5384 38.0309 9.51172 29.5001 9.51172C20.9693 9.51172 13.0184 14.5384 7.48428 23.2384C5.30928 26.6459 5.30928 32.3734 7.48428 35.7809C13.0184 44.4809 20.9693 49.5076 29.5001 49.5076Z" stroke="white" stroke-width="4" stroke-linecap="round" stroke-linejoin="round"/>
</g>
</g>
</svg>
