<svg width="28" height="28" viewBox="0 0 28 28" fill="none" xmlns="http://www.w3.org/2000/svg">
<path d="M25.2709 12.1801L24.1275 17.0568C23.1475 21.2684 21.2109 22.9718 17.5709 22.6218C16.9875 22.5751 16.3575 22.4701 15.6809 22.3068L13.7209 21.8401C8.85586 20.6851 7.35086 18.2818 8.49419 13.4051L9.63753 8.51676C9.87086 7.52509 10.1509 6.66176 10.5009 5.95009C11.8659 3.12676 14.1875 2.36842 18.0842 3.29009L20.0325 3.74509C24.9209 4.88842 26.4142 7.30342 25.2709 12.1801Z" stroke="black" stroke-width="1.5" stroke-linecap="round" stroke-linejoin="round"/>
<path d="M17.5694 22.6216C16.8461 23.1116 15.9361 23.52 14.8278 23.8816L12.9844 24.4883C8.35276 25.9816 5.91442 24.7333 4.40942 20.1016L2.91609 15.4933C1.42275 10.8616 2.65942 8.41162 7.29109 6.91828L9.13442 6.31162C9.61275 6.15995 10.0678 6.03162 10.4994 5.94995C10.1494 6.66162 9.86942 7.52495 9.63609 8.51662L8.49276 13.405C7.34942 18.2816 8.85442 20.685 13.7194 21.84L15.6794 22.3066C16.3561 22.47 16.9861 22.575 17.5694 22.6216Z" stroke="black" stroke-width="1.5" stroke-linecap="round" stroke-linejoin="round"/>
<path d="M14.7461 9.95166L20.4044 11.3867" stroke="black" stroke-width="1.5" stroke-linecap="round" stroke-linejoin="round"/>
<path d="M13.6035 14.4666L16.9868 15.3299" stroke="black" stroke-width="1.5" stroke-linecap="round" stroke-linejoin="round"/>
</svg>
