<svg width="80" height="81" viewBox="0 0 80 81" fill="none" xmlns="http://www.w3.org/2000/svg">
<rect y="0.746582" width="80" height="80" rx="24" fill="#F05161" fill-opacity="0.1"/>
<g clip-path="url(#clip0_1550_5140)">
<path d="M56.5117 38.9447C57.888 37.9776 58.7994 36.3687 58.7994 34.5553C58.7994 31.5888 56.4001 29.1895 53.4335 29.1895C50.467 29.1895 48.0677 31.5888 48.0677 34.5553C48.0677 36.3687 48.9697 37.9776 50.3554 38.9447C49.1743 39.3539 48.0956 39.9863 47.1842 40.8046C45.9288 39.7352 44.4501 38.9168 42.832 38.4332C44.7942 37.2429 46.1148 35.0761 46.1148 32.6117C46.1148 28.8547 43.0738 25.8137 39.3168 25.8137C35.5598 25.8137 32.5188 28.864 32.5188 32.6117C32.5188 35.0761 33.83 37.2429 35.8015 38.4332C34.202 38.9168 32.742 39.7259 31.4959 40.7767C30.5845 39.977 29.5243 39.3539 28.3619 38.954C29.7382 37.9869 30.6496 36.378 30.6496 34.5646C30.6496 31.5981 28.2503 29.1988 25.2837 29.1988C22.3172 29.1988 19.9179 31.5981 19.9179 34.5646C19.9179 36.378 20.8199 37.9869 22.2056 38.954C18.5137 40.228 15.8633 43.734 15.8633 47.8537V48.4675C15.8633 48.4861 15.8819 48.5047 15.9005 48.5047H27.2738C27.2088 49.0161 27.1716 49.5462 27.1716 50.0763V50.7087C27.1716 53.4427 29.3848 55.656 32.1189 55.656H46.5332C49.2673 55.656 51.4806 53.4427 51.4806 50.7087V50.0763C51.4806 49.5462 51.4434 49.0161 51.3783 48.5047H62.8261C62.8447 48.5047 62.8633 48.4861 62.8633 48.4675V47.8537C62.8447 43.7247 60.2036 40.2187 56.5117 38.9447ZM49.5556 34.546C49.5556 32.4071 51.2946 30.6681 53.4335 30.6681C55.5724 30.6681 57.3114 32.4071 57.3114 34.546C57.3114 36.657 55.6096 38.3774 53.5079 38.4239C53.48 38.4239 53.4614 38.4239 53.4335 38.4239C53.4056 38.4239 53.387 38.4239 53.3591 38.4239C51.2481 38.3867 49.5556 36.6663 49.5556 34.546ZM33.9881 32.6117C33.9881 29.6823 36.3688 27.3017 39.2982 27.3017C42.2275 27.3017 44.6082 29.6823 44.6082 32.6117C44.6082 35.4388 42.3856 37.7544 39.6051 37.9125C39.5028 37.9125 39.4005 37.9125 39.2982 37.9125C39.1959 37.9125 39.0936 37.9125 38.9913 37.9125C36.2107 37.7544 33.9881 35.4388 33.9881 32.6117ZM21.3779 34.546C21.3779 32.4071 23.1169 30.6681 25.2558 30.6681C27.3947 30.6681 29.1338 32.4071 29.1338 34.546C29.1338 36.657 27.4319 38.3774 25.3302 38.4239C25.3023 38.4239 25.2837 38.4239 25.2558 38.4239C25.2279 38.4239 25.2093 38.4239 25.1814 38.4239C23.0797 38.3867 21.3779 36.6663 21.3779 34.546ZM27.5342 47.0074H17.3698C17.7883 43.0458 21.1361 39.9398 25.2 39.9119C25.2186 39.9119 25.2372 39.9119 25.2558 39.9119C25.2744 39.9119 25.293 39.9119 25.3116 39.9119C27.2459 39.9212 29.0129 40.6372 30.3799 41.7997C29.0408 43.2504 28.0457 45.0359 27.5342 47.0074ZM49.9741 50.7087C49.9741 52.6151 48.4211 54.1681 46.5146 54.1681H32.1003C30.1939 54.1681 28.6409 52.6151 28.6409 50.7087V50.0763C28.6409 44.3013 33.2535 39.5771 38.9913 39.4097C39.0936 39.419 39.2052 39.419 39.3075 39.419C39.4098 39.419 39.5214 39.419 39.6237 39.4097C45.3615 39.5771 49.9741 44.3013 49.9741 50.0763V50.7087ZM51.0807 47.0074C50.5693 45.0452 49.5928 43.2876 48.263 41.8369C49.6393 40.6465 51.4248 39.9305 53.3777 39.9119C53.3963 39.9119 53.4149 39.9119 53.4335 39.9119C53.4521 39.9119 53.4707 39.9119 53.4893 39.9119C57.5532 39.9398 60.9011 43.0458 61.3196 47.0074H51.0807Z" fill="#F05161"/>
</g>
<defs>
<clipPath id="clip0_1550_5140">
<rect width="47" height="47" fill="white" transform="translate(15.8633 17.2349)"/>
</clipPath>
</defs>
</svg>
