<svg width="29" height="36" viewBox="0 0 29 36" fill="none" xmlns="http://www.w3.org/2000/svg">
<mask id="path-1-outside-1_189_5727" maskUnits="userSpaceOnUse" x="-2.25" y="-3.5" width="36" height="42" fill="black">
<rect fill="white" x="-2.25" y="-3.5" width="36" height="42"/>
<path d="M14.0583 18.316L14.2743 12.628L28.4343 35.5H20.2743L10.1223 18.34L13.4583 18.772L7.65025 26.572L8.29825 21.892V35.5H0.83425V0.0999994H8.29825V18.484L6.90625 17.716L19.8423 0.0999994H27.7143L14.0583 18.316Z"/>
</mask>
<path d="M14.0583 18.316L11.1962 18.2073L10.8482 27.3728L16.3499 20.034L14.0583 18.316ZM14.2743 12.628L16.7094 11.1204L11.7684 3.13944L11.4122 12.5193L14.2743 12.628ZM28.4343 35.5V38.3641H33.5759L30.8694 33.9924L28.4343 35.5ZM20.2743 35.5L17.8092 36.9583L18.6409 38.3641H20.2743V35.5ZM10.1222 18.34L10.4901 15.4996L4.66808 14.7457L7.65724 19.7983L10.1222 18.34ZM13.4583 18.772L15.7554 20.4825L18.6764 16.5597L13.8261 15.9316L13.4583 18.772ZM7.65025 26.572L4.81324 26.1792L9.94744 28.2825L7.65025 26.572ZM8.29825 21.892H11.1623L5.46124 21.4992L8.29825 21.892ZM8.29825 35.5V38.3641H11.1623V35.5H8.29825ZM0.83425 35.5H-2.02983V38.3641H0.83425V35.5ZM0.83425 0.0999994V-2.76408H-2.02983V0.0999994H0.83425ZM8.29825 0.0999994H11.1623V-2.76408H8.29825V0.0999994ZM8.29825 18.484L6.91468 20.9917L11.1623 23.3353V18.484H8.29825ZM6.90625 17.716L4.59774 16.0208L2.66797 18.6487L5.52268 20.2237L6.90625 17.716ZM19.8423 0.0999994V-2.76408H18.3921L17.5337 -1.59521L19.8423 0.0999994ZM27.7143 0.0999994L30.0059 1.81796L33.4409 -2.76408H27.7143V0.0999994ZM16.9203 18.4247L17.1363 12.7367L11.4122 12.5193L11.1962 18.2073L16.9203 18.4247ZM11.8391 14.1356L25.9991 37.0076L30.8694 33.9924L16.7094 11.1204L11.8391 14.1356ZM28.4343 32.6359H20.2743V38.3641H28.4343V32.6359ZM22.7393 34.0417L12.5873 16.8817L7.65724 19.7983L17.8092 36.9583L22.7393 34.0417ZM9.75443 21.1804L13.0904 21.6124L13.8261 15.9316L10.4901 15.4996L9.75443 21.1804ZM11.1611 17.0615L5.35306 24.8615L9.94744 28.2825L15.7554 20.4825L11.1611 17.0615ZM10.4873 26.9648L11.1353 22.2848L5.46124 21.4992L4.81324 26.1792L10.4873 26.9648ZM5.43417 21.892V35.5H11.1623V21.892H5.43417ZM8.29825 32.6359H0.83425V38.3641H8.29825V32.6359ZM3.69833 35.5V0.0999994H-2.02983V35.5H3.69833ZM0.83425 2.96408H8.29825V-2.76408H0.83425V2.96408ZM5.43417 0.0999994V18.484H11.1623V0.0999994H5.43417ZM9.68182 15.9763L8.28982 15.2083L5.52268 20.2237L6.91468 20.9917L9.68182 15.9763ZM9.21476 19.4112L22.1508 1.79521L17.5337 -1.59521L4.59774 16.0208L9.21476 19.4112ZM19.8423 2.96408H27.7143V-2.76408H19.8423V2.96408ZM25.4226 -1.61796L11.7666 16.598L16.3499 20.034L30.0059 1.81796L25.4226 -1.61796Z" fill="#17191C" mask="url(#path-1-outside-1_189_5727)"/>
</svg>
