<svg width="148" height="53" viewBox="0 0 148 53" fill="none" xmlns="http://www.w3.org/2000/svg">
<g id="Layer_1" clip-path="url(#clip0_207_9695)">
<path id="Vector" d="M147.929 28.0178C147.777 27.3154 147.147 26.8222 146.441 26.8547C146.195 26.8648 145.97 26.9399 145.775 27.08C145.556 27.2363 145.349 27.4149 145.158 27.6057C144.669 28.0989 144.166 28.576 143.622 29.0022C142.976 29.5076 142.314 29.9948 141.586 30.3683C141.34 30.4941 141.076 30.5855 140.818 30.6809C140.697 30.7276 140.565 30.758 140.414 30.7032C140.443 30.6423 140.459 30.5814 140.492 30.5307C141.088 29.5726 141.352 28.5252 141.375 27.4088C141.405 25.9818 141.044 24.6665 140.246 23.475C139.556 22.4439 138.606 21.7395 137.465 21.2747C136.564 20.9093 135.736 21.0636 134.964 21.6238C134.587 21.8958 134.297 22.245 134.049 22.6387C133.763 23.0894 133.56 23.5907 133.412 24.1043C133.172 24.9243 132.963 25.7525 132.831 26.5989C132.65 27.762 132.675 28.921 132.991 30.0618C133.046 30.2607 133.054 30.4718 132.997 30.6687C132.332 33.0192 131.554 35.3312 130.629 37.5904C130.054 39.0011 129.326 40.3326 128.402 41.5587C128.063 42.0093 127.681 42.4254 127.271 42.807C127.202 42.874 127.131 42.9328 127.056 42.9876C126.943 43.0648 126.823 43.0242 126.768 42.8922C126.735 42.809 126.701 42.7197 126.693 42.6284C126.644 42.1453 126.567 41.6581 126.561 41.173C126.555 40.5275 126.585 39.878 126.64 39.2345C126.703 38.4815 126.796 37.7304 126.88 36.9774C126.973 36.1248 127.105 35.2784 127.284 34.436C127.616 32.869 127.947 31.2979 128.439 29.7695C128.664 29.0672 128.926 28.377 129.181 27.6849C129.506 26.808 129.439 25.8195 128.956 25.0177C128.552 24.3438 128.024 23.7795 127.377 23.3289C126.476 22.6996 125.481 22.2957 124.395 22.1252C124.324 22.115 124.253 22.111 124.18 22.1029C123.857 22.0663 123.534 22.1394 123.271 22.3221C122.729 22.6956 122.27 23.1462 121.878 23.676C121.334 24.4128 120.904 25.2166 120.591 26.0752C120.181 27.1896 119.785 28.308 119.422 29.4386C118.85 31.2066 118.316 32.9888 117.754 34.7608C117.423 35.7919 117.074 36.815 116.714 37.836C116.296 39.0214 115.756 40.152 115.04 41.1892C114.766 41.5871 114.443 41.9545 114.151 42.3442C114.104 42.4071 114.071 42.4782 114.037 42.5472C113.938 42.7542 113.773 42.8821 113.57 42.9714C113.448 43.0262 113.304 42.9714 113.243 42.8537C113.203 42.7745 113.166 42.6893 113.152 42.6C113.097 42.2488 113.028 41.8976 113.006 41.5444C112.953 40.767 113.014 39.9876 113.107 39.2142C113.201 38.4226 113.308 37.633 113.404 36.8414C113.487 36.1533 113.67 35.0348 113.814 34.3528C114.145 32.7797 114.481 31.2086 114.977 29.6802C115.188 29.0266 115.431 28.3852 115.673 27.7437C116.051 26.7369 115.984 25.7809 115.403 24.8675C115.03 24.2809 114.565 23.7815 113.992 23.3857C113.061 22.7341 112.034 22.3059 110.903 22.1313C110.761 22.109 110.615 22.1069 110.471 22.1008C110.166 22.0846 109.89 22.1759 109.663 22.3667C109.462 22.5352 109.265 22.7159 109.111 22.9249C108.883 23.2335 108.674 23.5582 108.494 23.8932C108.142 24.5569 107.834 25.241 107.493 25.9088C107.456 25.9798 107.416 26.0488 107.371 26.1158C106.596 27.2911 105.82 28.4643 105.033 29.6274C104.156 30.9224 103.133 32.1119 101.982 33.1694C101.895 33.2526 101.805 33.3318 101.712 33.4089C101.696 33.4252 101.665 33.4252 101.641 33.4333C101.558 33.4029 101.58 33.3257 101.58 33.2648C101.574 32.392 101.523 31.5232 101.428 30.6585C101.286 29.331 101.068 28.0218 100.565 26.7694C99.8161 24.9101 98.6043 23.4446 96.8911 22.3911C96.002 21.8431 95.0399 21.5 94.0189 21.3133C93.2902 21.1793 92.5493 21.1204 91.8044 21.1265C90.6332 21.1346 89.4742 21.4269 88.4511 21.9953C86.5756 23.0346 85.1791 24.5143 84.2048 26.3797C84.1033 26.5786 84.016 26.7816 83.8455 26.944C83.7663 27.0211 83.7217 27.1449 83.6669 27.2485C82.0329 30.2546 80.1248 33.0781 77.9813 35.7412C77.4211 36.4395 76.8243 37.1134 76.1768 37.7385C75.1051 38.7717 73.944 39.6811 72.5983 40.2799C71.9914 40.5519 71.358 40.7285 70.6842 40.7082C70.4852 40.7021 70.2904 40.6716 70.0955 40.6452C69.7139 40.5904 69.4318 40.3793 69.2673 40.0404C69.1455 39.7927 69.0481 39.5309 68.973 39.267C68.8025 38.6641 68.7416 38.045 68.7396 37.4239C68.7315 36.2365 68.8005 35.0531 69.0055 33.8758C69.1618 32.9685 69.314 32.0571 69.517 31.1558C69.5353 31.0787 69.5576 31.0036 69.5799 30.9244C69.7606 30.8148 69.9514 30.7519 70.1625 30.7154C71.3946 30.5205 72.6023 30.1653 73.672 29.5218C76.1058 28.0624 77.9428 26.0651 79.321 23.6557C80.204 22.111 80.8292 20.4607 81.3123 18.7537C81.6289 17.6474 81.8644 16.527 82.0004 15.3842C82.1993 13.7096 82.1891 12.037 81.8623 10.3787C81.6675 9.40231 81.3488 8.47062 80.8474 7.60186C80.1187 6.33323 79.0551 5.43402 77.6342 4.92657C77.2222 4.77839 76.7878 4.69923 76.3473 4.6769C74.2323 4.56323 72.3324 5.13564 70.6578 6.42051C69.9209 6.98683 69.2714 7.64246 68.6807 8.35695C67.2842 10.0458 66.1637 11.9051 65.2402 13.8841C64.9053 14.6027 64.6048 15.3355 64.2923 16.0621C64.2456 16.1657 64.1969 16.2732 64.14 16.4011C64.0527 16.3727 63.9797 16.3463 63.9066 16.3301C63.7665 16.2935 63.6224 16.2611 63.4824 16.2387C63.2652 16.2022 63.0744 16.257 62.8876 16.3869C61.8808 17.0628 60.8659 17.7327 59.8551 18.4025C58.2495 19.4661 54.2081 21.7558 53.4693 21.8674C52.7934 21.9689 52.2209 21.362 52.3752 20.6921C53.6357 15.2969 54.2995 12.1629 64.1461 6.35556C64.2841 5.81968 64.209 5.30817 64.0548 4.79869C63.931 4.39069 63.732 4.01721 63.4722 3.68229C62.502 2.42786 49.9922 7.40903 49.8785 7.43542C49.1559 7.60795 48.7094 8.07075 48.5206 8.78119C48.3785 9.31503 48.6221 8.61677 48.0111 11.6006C47.5361 13.9247 47.0835 16.257 46.7019 18.5974C46.3852 20.5399 46.0747 22.4784 45.7864 24.4189C45.5449 26.0245 45.3358 27.6341 45.1186 29.2397C44.94 30.5591 44.7675 31.8805 44.599 33.2019C44.4508 34.3792 44.3148 35.5585 44.1727 36.7358C44.0509 37.7182 43.9312 38.6986 43.8134 39.6811C43.7221 40.4402 43.6368 41.2014 43.5475 41.9606C43.4542 42.7603 43.3608 43.558 43.2674 44.3598C43.239 44.5831 43.2065 44.8043 43.1842 45.0276C43.1477 45.397 43.1091 45.7665 43.0198 46.1278C42.8249 46.8869 42.8939 47.644 43.0644 48.393C43.2979 49.408 43.6998 50.3457 44.3534 51.1678C44.6863 51.5859 45.0719 51.9554 45.553 52.2274C45.7397 52.3309 45.9488 52.3918 46.1579 52.4506C46.2573 52.4791 46.3568 52.5197 46.4542 52.5461C46.7973 52.6455 47.1383 52.7409 47.4793 52.8383C47.5422 52.8566 47.6031 52.883 47.664 52.9074H49.1681C49.2046 52.8891 49.2351 52.8586 49.2716 52.8526C50.6722 52.6029 51.882 51.9513 52.9659 51.0541C54.4537 49.8241 55.5011 48.2773 56.1973 46.483C56.6419 45.3341 56.9545 44.1487 57.06 42.9166C57.1351 42.0742 57.1209 41.2298 57.0377 40.3854C56.924 39.2244 56.6175 38.1059 56.3354 36.9774C55.5925 33.9773 54.6242 31.0503 53.453 28.1903C53.3698 27.9954 53.2744 27.8026 53.3982 27.5692C53.4287 27.5529 53.4693 27.5204 53.52 27.5002C55.2616 26.8242 56.8043 25.8276 58.2312 24.632C59.4917 23.5785 60.6305 22.4073 61.7184 21.1834C62.0432 20.82 62.3558 20.4445 62.6765 20.0751C62.7334 20.0061 62.7983 19.9431 62.8836 19.8498C62.9242 19.9898 62.8694 20.0832 62.845 20.1745C62.5507 21.2544 62.234 22.3302 61.96 23.4162C61.4343 25.5028 61.0243 27.6138 60.7178 29.7411C60.4782 31.3751 60.3057 33.0172 60.2001 34.6613C60.0784 36.5734 60.052 38.4875 60.192 40.4017C60.2854 41.7048 60.4498 42.9998 60.8132 44.2624C61.0283 45.0134 61.3165 45.734 61.7266 46.4018C62.1894 47.1528 62.7699 47.7983 63.4803 48.3159C65.1204 49.5034 66.9533 50.0575 69.0136 49.8586C70.0894 49.7551 71.1206 49.3856 72.0665 48.868C73.0753 48.3179 74.0049 47.6501 74.8656 46.8869C76.1281 45.7705 77.2202 44.5019 78.229 43.1602C79.049 42.0702 79.7777 40.9274 80.4821 39.7602C80.545 39.6567 80.5856 39.5228 80.7459 39.4294C80.7459 39.5694 80.748 39.6689 80.7459 39.7684C80.7175 40.6534 80.7439 41.5363 80.8495 42.4173C80.8799 42.671 80.9327 42.9207 81.0037 43.1663C81.8278 45.9694 83.5309 48.0561 86.1432 49.3978C86.9024 49.7875 87.7448 50.0027 88.5973 50.0555C89.8314 50.1306 91.0513 50.0575 92.2327 49.6739C93.6881 49.1989 94.9628 48.4255 96.1015 47.4167C97.2301 46.418 98.1455 45.2489 98.9128 43.9599C99.8587 42.3706 100.531 40.6696 100.951 38.8712C101.026 38.5586 101.16 38.3434 101.432 38.1567C102.743 37.2554 103.902 36.1796 104.966 35.0003C105.059 34.8968 105.136 34.773 105.299 34.6877C105.299 34.8136 105.309 34.9049 105.297 34.9902C105.124 36.1512 105.018 37.3224 104.949 38.4936C104.897 39.3949 104.897 40.3042 104.956 41.2055C105.004 41.9504 105.079 42.6913 105.228 43.422C105.532 44.916 106.1 46.2962 107 47.5344C107.322 47.9708 107.682 48.3768 108.09 48.7341C109.283 49.7814 110.684 50.1854 112.241 50.0494C112.975 49.9824 113.676 49.684 114.23 49.1969C114.689 48.7929 115.092 48.3342 115.452 47.8348C115.823 47.3172 116.134 46.7672 116.404 46.1927C116.984 44.9606 117.417 43.6737 117.741 42.3503C117.91 41.6581 118.068 40.9639 118.237 40.2718C118.259 40.1723 118.289 40.0728 118.336 39.9084C118.393 40.0485 118.385 40.1337 118.385 40.2129C118.391 41.0126 118.448 41.8104 118.537 42.606C118.594 43.1541 118.706 43.6981 118.878 44.2238C119.181 45.1474 119.546 46.0466 120.049 46.8829C120.427 47.508 120.869 48.0825 121.395 48.5879C122.335 49.5013 123.47 49.9763 124.767 50.0595C125.481 50.1042 126.191 50.0879 126.89 49.9053C127.302 49.8017 127.694 49.6515 128.067 49.4506C128.832 49.0406 129.498 48.5067 130.073 47.8612C130.752 47.094 131.303 46.2414 131.745 45.3219C132.232 44.3091 132.644 43.2698 132.983 42.198C133.775 39.6973 134.593 37.2027 135.376 34.704C135.443 34.4929 135.5 34.2412 135.561 34.0301C135.592 33.9225 135.632 33.821 135.677 33.6992C135.772 33.7459 135.855 33.7865 135.935 33.8291C136.71 34.2493 137.538 34.5781 138.409 34.7019C140.747 35.0348 142.722 34.4239 144.385 32.9664C144.531 32.8365 144.665 32.7005 144.797 32.5564C145.678 31.6085 146.551 30.6565 147.429 29.7045C147.695 29.4163 147.884 29.124 147.998 28.8277V28.1943C147.973 28.1375 147.941 28.0786 147.927 28.0157L147.929 28.0178ZM70.3817 27.6828C71.0414 25.31 71.7092 22.9351 72.5496 20.617C73.2722 18.6197 74.1044 16.6711 75.1274 14.8037C75.4684 14.1846 75.85 13.5898 76.2844 13.0357C76.4833 12.782 76.6883 12.5384 76.9421 12.2867C76.9888 12.3902 77.0273 12.4572 77.0456 12.5282C77.3156 13.5228 77.4556 14.5377 77.4719 15.5729C77.5165 18.502 76.7675 21.2057 75.1497 23.6557C74.0029 25.3932 72.5171 26.7694 70.6842 27.762C70.5928 27.8107 70.4954 27.8452 70.3959 27.8838C70.3898 27.8858 70.3776 27.8736 70.3411 27.8554C70.3553 27.8006 70.3655 27.7397 70.3817 27.6828ZM53.0613 41.8266C52.9618 42.537 52.7751 43.2211 52.495 43.8787C52.2453 44.4674 51.8962 44.9931 51.4577 45.4579C50.9564 45.9857 50.3352 46.278 49.6309 46.416C49.5822 46.4241 49.5294 46.416 49.4929 46.416C49.4096 46.349 49.4442 46.2841 49.4543 46.2232C49.8481 44.2847 50.2358 42.3462 50.6336 40.4098C51.0376 38.4348 51.4537 36.4598 51.8657 34.4888C51.884 34.3873 51.9144 34.2879 51.951 34.1498C52.0119 34.2188 52.0342 34.2351 52.0443 34.2594C52.6188 35.5139 53.0288 36.8109 53.1506 38.1973C53.2541 39.4131 53.2257 40.6209 53.0593 41.8286L53.0613 41.8266ZM94.3762 41.3983C93.9012 42.0661 93.3633 42.6832 92.728 43.2089C92.456 43.4342 92.1677 43.6372 91.8531 43.8036C91.5527 43.964 91.2279 44.0695 90.893 44.1304C89.801 44.3334 89.0317 44.0391 88.6155 43.2109C88.4471 42.8801 88.3375 42.5289 88.2644 42.1656C88.1568 41.6459 88.102 41.1222 88.1487 40.5356C88.3131 40.6026 88.4329 40.6493 88.5526 40.698C89.3219 41.0167 90.1095 41.2765 90.9397 41.38C91.4126 41.4409 91.8917 41.4551 92.3626 41.447C92.9309 41.4328 93.4952 41.3597 94.0575 41.2785C94.1732 41.2623 94.297 41.2501 94.4431 41.2319C94.4127 41.3151 94.4046 41.3638 94.3762 41.4003V41.3983ZM94.4634 37.1763C94.0291 37.5579 93.5642 37.7873 93.0791 37.8948C92.7828 37.9578 92.4844 37.9781 92.186 38.0187C91.6643 37.9963 91.1528 37.903 90.6515 37.6594C90.3551 37.5132 90.073 37.3102 89.8152 37.0261C89.3402 36.5044 88.9992 35.8021 88.7982 34.9191C88.5506 33.8352 88.5019 32.7188 88.6257 31.5801C88.7394 30.5428 89.0337 29.6578 89.4701 28.9007C89.9715 28.0401 90.5682 27.4311 91.2543 27.1003C92.2246 26.6334 93.2009 26.6253 94.1772 27.0698C94.6116 27.2688 95.0074 27.5976 95.3627 28.0604C95.9188 28.7871 97.703 34.1092 94.4634 37.1783V37.1763Z" fill="#F05161"/>
<path id="Vector_2" d="M0 37.3062C0.044656 37.089 0.119759 36.8719 0.129908 36.6547C0.213131 34.8197 0.432351 32.999 0.700287 31.1843C1.17323 27.9711 1.8106 24.7904 2.68139 21.6604C2.85798 21.0251 3.04675 20.3938 3.24568 19.7646C3.40603 19.2612 3.63337 18.7842 3.9074 18.3295C4.38643 17.5318 5.07454 17.0101 5.97984 16.7929C6.35129 16.7036 6.72884 16.6326 7.10842 16.596C7.99139 16.5108 8.87436 16.5128 9.74718 16.7077C10.0963 16.7868 10.4312 16.9025 10.7398 17.0872C11.3528 17.4546 11.6897 17.9946 11.7222 18.707C11.7384 19.0886 11.7262 19.4743 11.6857 19.8539C11.4928 21.6259 11.1579 23.3756 10.8047 25.1213C10.4211 27.0212 10.0192 28.919 9.63148 30.8189C9.33918 32.254 9.08952 33.6972 8.89465 35.1485C8.75866 36.1553 8.66529 37.1682 8.70385 38.1872C8.72618 38.8083 8.78504 39.4254 8.94946 40.0262C9.02456 40.3043 9.12199 40.5824 9.24175 40.8442C9.62539 41.6805 10.3399 42.0641 11.298 42.0174C11.7141 41.9971 12.0977 41.851 12.4631 41.6622C13.1248 41.3212 13.7013 40.8625 14.2595 40.357C14.2595 40.2109 14.2595 40.0668 14.2595 39.9227C14.2595 38.6419 14.2432 37.361 14.2595 36.0823C14.2777 34.8806 14.367 33.683 14.4706 32.4854C14.5903 31.1051 14.7608 29.7289 14.9821 28.3629C15.4002 25.7952 15.9848 23.264 16.7724 20.7835C16.8921 20.406 17.0261 20.0345 17.1763 19.6692C17.361 19.2145 17.6229 18.8024 17.9334 18.4208C18.4551 17.7814 19.1067 17.3268 19.878 17.0365C20.4362 16.8254 21.0147 16.7036 21.6074 16.6305C22.2387 16.5514 22.872 16.5311 23.5032 16.5656C23.8443 16.5838 24.1873 16.6285 24.5182 16.7097C25.2205 16.8802 25.531 17.278 25.5797 18.0007C25.6122 18.4655 25.5412 18.9222 25.46 19.3769C25.2205 20.7165 24.8632 22.0278 24.5263 23.3431C24.0736 25.107 23.6494 26.877 23.3165 28.6673C23.1358 29.6396 23.0181 30.6241 22.8821 31.6025C22.8233 32.0206 22.7827 32.4408 22.74 32.8609C22.7299 32.9584 22.74 33.0578 22.74 33.1999C22.8781 33.0599 22.9065 32.9137 22.9572 32.7858C23.6453 31.0706 24.4106 29.39 25.2854 27.762C26.5459 25.4135 28.0622 23.2457 29.883 21.293C30.705 20.4121 31.5799 19.592 32.5603 18.8897C33.835 17.9763 35.2153 17.2679 36.7316 16.8457C37.7871 16.5514 38.8588 16.4702 39.9448 16.6386C40.3629 16.7036 40.7709 16.8132 41.1586 16.9857C42.277 17.4851 42.9347 18.362 43.231 19.5291C43.3386 19.9513 43.3934 20.3837 43.4056 20.8201C43.4279 21.6016 43.3731 22.3769 43.2838 23.1523C43.1478 24.3317 42.9976 25.5089 42.8352 26.6862C42.7094 27.6017 42.551 28.511 42.413 29.4245C42.2587 30.4414 42.1045 31.4583 41.9664 32.4793C41.8102 33.6302 41.6559 34.7811 41.528 35.9341C41.4184 36.9307 41.3372 37.9314 41.2601 38.9301C41.1078 40.9051 41.0875 42.8862 41.0713 44.8653C41.0652 45.6041 40.9982 46.3389 40.8034 47.0595C40.4299 48.4398 39.551 49.2882 38.1605 49.6008C37.0238 49.8566 35.8851 49.8769 34.7484 49.6049C33.4717 49.3004 32.6455 48.5047 32.2355 47.2665C32.0386 46.6738 31.9473 46.0608 31.9229 45.4397C31.8884 44.4877 31.9493 43.5398 32.0346 42.5919C32.1117 41.7251 32.2051 40.8584 32.3126 39.9937C32.4486 38.8936 32.6029 37.7975 32.7572 36.6993C32.9236 35.5098 33.1083 34.3244 33.2727 33.135C33.4027 32.1931 33.5285 31.2513 33.63 30.3074C33.6949 29.6924 33.7173 29.0713 33.7518 28.4522C33.764 28.2411 33.7416 28.03 33.6625 27.829C33.5163 27.4555 33.1997 27.285 32.8079 27.3743C32.5989 27.421 32.404 27.5124 32.2416 27.6484C31.9879 27.8595 31.7281 28.0665 31.5109 28.3121C31.1536 28.7181 30.8126 29.1383 30.4939 29.5767C29.544 30.8819 28.7645 32.2906 28.0379 33.7297C26.3003 37.1723 24.983 40.7671 24.0838 44.5161C23.8808 45.3626 23.6392 46.2009 23.2962 47.0027C23.1561 47.3295 22.9998 47.6502 22.8293 47.9628C22.3564 48.8376 21.6257 49.3776 20.6635 49.615C19.9125 49.8018 19.1493 49.8525 18.3861 49.7328C17.4889 49.5927 16.748 49.1624 16.1797 48.452C15.999 48.2266 15.8529 47.9729 15.6905 47.7334C15.6418 47.6603 15.593 47.5852 15.5322 47.4878C15.3921 47.573 15.2683 47.6441 15.1485 47.7212C14.1884 48.3342 13.1857 48.8559 12.1058 49.2294C10.0456 49.9439 7.96703 49.9926 5.88241 49.3593C4.30524 48.8802 3.07923 47.9222 2.18814 46.5358C1.45335 45.391 0.964163 44.1447 0.639392 42.8273C0.365367 41.7089 0.207041 40.5742 0.148177 39.4254C0.133968 39.1656 0.158326 38.8956 0.00405963 38.6601C0 38.2034 0 37.7548 0 37.3062Z" fill="#F05161"/>
<path id="Vector_3" d="M9.41353 11.9112C8.56304 11.8909 7.72676 11.7975 6.90874 11.558C6.42564 11.4159 5.9669 11.217 5.5447 10.9389C4.77134 10.4295 4.21314 9.73931 3.88431 8.87664C3.48241 7.81505 3.39919 6.71895 3.60217 5.60458C3.78688 4.58764 4.26592 3.72091 4.98041 2.98206C5.7964 2.13968 6.76665 1.54089 7.89117 1.21612C9.47443 0.759407 11.0658 0.751288 12.6572 1.18567C13.3636 1.3785 14.0111 1.70327 14.5896 2.15592C15.4969 2.86839 16.0023 3.80616 16.1566 4.94489C16.2824 5.86034 16.2114 6.76563 15.9637 7.65063C15.5273 9.21156 14.5429 10.334 13.122 11.0871C12.4156 11.4626 11.6565 11.6859 10.8669 11.7894C10.3838 11.8524 9.89663 11.8727 9.40947 11.9112H9.41353Z" fill="#F05161"/>
</g>
<defs>
<clipPath id="clip0_207_9695">
<rect width="148" height="52.0425" fill="white" transform="translate(0 0.866943)"/>
</clipPath>
</defs>
</svg>
