<svg width="125" height="44" viewBox="0 0 125 44" fill="none" xmlns="http://www.w3.org/2000/svg">
<g id="Layer_1" clip-path="url(#clip0_207_9989)">
<path id="Vector" d="M123.954 22.9426C123.827 22.3564 123.302 21.9448 122.712 21.9719C122.507 21.9803 122.319 22.043 122.156 22.1599C121.973 22.2904 121.801 22.4395 121.641 22.5987C121.233 23.0104 120.813 23.4085 120.359 23.7643C119.82 24.1861 119.268 24.5927 118.66 24.9044C118.455 25.0095 118.234 25.0857 118.019 25.1653C117.918 25.2043 117.807 25.2297 117.682 25.184C117.706 25.1332 117.719 25.0823 117.746 25.04C118.244 24.2403 118.465 23.3661 118.483 22.4344C118.509 21.2434 118.207 20.1456 117.541 19.1511C116.965 18.2905 116.173 17.7026 115.22 17.3147C114.468 17.0097 113.777 17.1385 113.133 17.606C112.818 17.8331 112.576 18.1245 112.369 18.4531C112.13 18.8292 111.961 19.2477 111.837 19.6763C111.637 20.3607 111.463 21.0519 111.353 21.7584C111.202 22.7292 111.222 23.6965 111.487 24.6486C111.532 24.8146 111.539 24.9908 111.492 25.1552C110.936 27.117 110.287 29.0466 109.515 30.9322C109.035 32.1097 108.427 33.221 107.656 34.2443C107.373 34.6204 107.055 34.9677 106.712 35.2862C106.655 35.3421 106.596 35.3912 106.533 35.437C106.438 35.5013 106.338 35.4675 106.292 35.3573C106.265 35.2879 106.236 35.2133 106.23 35.1371C106.189 34.7339 106.125 34.3273 106.119 33.9224C106.114 33.3837 106.14 32.8415 106.186 32.3045C106.238 31.676 106.316 31.0491 106.385 30.4206C106.463 29.709 106.573 29.0026 106.723 28.2995C107 26.9916 107.277 25.6804 107.687 24.4047C107.875 23.8185 108.093 23.2425 108.307 22.6648C108.578 21.9329 108.522 21.1079 108.119 20.4387C107.781 19.8762 107.341 19.4052 106.801 19.0291C106.048 18.5039 105.218 18.1668 104.312 18.0245C104.253 18.016 104.193 18.0126 104.132 18.0059C103.863 17.9754 103.593 18.0364 103.373 18.1888C102.921 18.5006 102.538 18.8767 102.211 19.3188C101.757 19.9338 101.398 20.6047 101.137 21.3213C100.795 22.2514 100.464 23.1849 100.161 24.1285C99.6834 25.6041 99.2378 27.0916 98.7685 28.5706C98.4924 29.4312 98.201 30.2851 97.9011 31.1372C97.5521 32.1266 97.1015 33.0702 96.5035 33.9359C96.2748 34.268 96.0054 34.5746 95.7614 34.8999C95.7225 34.9524 95.6954 35.0117 95.6666 35.0693C95.5835 35.2421 95.4463 35.3489 95.2769 35.4234C95.1753 35.4692 95.055 35.4234 95.0041 35.3252C94.9703 35.2591 94.9398 35.1879 94.9279 35.1134C94.8822 34.8203 94.8246 34.5272 94.8059 34.2324C94.7619 33.5836 94.8127 32.933 94.8906 32.2875C94.9686 31.6268 95.0584 30.9678 95.138 30.3071C95.2074 29.7328 95.3599 28.7993 95.4802 28.2301C95.7563 26.9171 96.0376 25.6058 96.4509 24.3301C96.6271 23.7846 96.8304 23.2493 97.032 22.7139C97.3471 21.8736 97.2912 21.0757 96.8067 20.3133C96.495 19.8237 96.107 19.4069 95.6293 19.0766C94.8517 18.5327 93.9944 18.1753 93.0508 18.0296C92.9322 18.0109 92.8102 18.0093 92.6899 18.0042C92.4358 17.9906 92.2054 18.0669 92.0157 18.2261C91.8479 18.3667 91.6836 18.5175 91.5549 18.692C91.3651 18.9495 91.1906 19.2206 91.0398 19.5001C90.7467 20.0541 90.4892 20.625 90.2046 21.1824C90.1741 21.2417 90.1402 21.2993 90.103 21.3552C89.4558 22.3361 88.8086 23.3153 88.1513 24.2861C87.4194 25.3669 86.5656 26.3597 85.605 27.2424C85.5322 27.3118 85.4576 27.3779 85.3797 27.4423C85.3661 27.4558 85.3407 27.4558 85.3204 27.4626C85.2509 27.4372 85.2696 27.3728 85.2696 27.322C85.2645 26.5935 85.2221 25.8684 85.1425 25.1467C85.0239 24.0387 84.8426 22.946 84.4225 21.9007C83.7973 20.3489 82.7859 19.1257 81.3561 18.2464C80.614 17.789 79.811 17.5027 78.9589 17.3468C78.3507 17.235 77.7323 17.1859 77.1105 17.191C76.133 17.1978 75.1657 17.4417 74.3118 17.9161C72.7464 18.7835 71.5808 20.0185 70.7676 21.5754C70.6829 21.7415 70.6101 21.9109 70.4678 22.0464C70.4017 22.1108 70.3644 22.2141 70.3187 22.3005C68.9549 24.8096 67.3624 27.1661 65.5734 29.3889C65.1058 29.9716 64.6077 30.5341 64.0673 31.0559C63.1728 31.9182 62.2037 32.6772 61.0805 33.177C60.5739 33.404 60.0454 33.5514 59.4829 33.5344C59.3169 33.5294 59.1542 33.5039 58.9916 33.4819C58.6731 33.4362 58.4376 33.26 58.3004 32.9771C58.1987 32.7704 58.1174 32.5518 58.0547 32.3316C57.9124 31.8284 57.8616 31.3117 57.8599 30.7933C57.8531 29.8022 57.9107 28.8145 58.0818 27.8319C58.2123 27.0746 58.3394 26.314 58.5088 25.5618C58.524 25.4974 58.5427 25.4347 58.5613 25.3686C58.7121 25.2772 58.8713 25.2246 59.0475 25.1941C60.0759 25.0315 61.0839 24.735 61.9767 24.198C64.008 22.9799 65.5412 21.3128 66.6915 19.3019C67.4285 18.0126 67.9503 16.6353 68.3535 15.2105C68.6178 14.2872 68.8143 13.352 68.9278 12.3982C69.0938 11.0006 69.0854 9.60458 68.8126 8.22046C68.65 7.40557 68.384 6.62796 67.9655 5.90286C67.3573 4.84402 66.4696 4.09351 65.2837 3.66997C64.9398 3.5463 64.5772 3.48023 64.2096 3.46159C62.4443 3.36672 60.8586 3.84447 59.4609 4.91687C58.8459 5.38953 58.3038 5.93674 57.8108 6.53308C56.6452 7.94262 55.71 9.49446 54.9392 11.1463C54.6597 11.746 54.4089 12.3576 54.148 12.9641C54.1091 13.0505 54.0684 13.1403 54.021 13.247C53.9481 13.2233 53.8871 13.2013 53.8261 13.1877C53.7092 13.1572 53.589 13.1301 53.4721 13.1115C53.2908 13.081 53.1315 13.1267 52.9757 13.2351C52.1354 13.7993 51.2883 14.3584 50.4446 14.9174C49.1046 15.8052 45.7315 17.7162 45.1148 17.8093C44.5507 17.894 44.0729 17.3875 44.2017 16.8284C45.2537 12.3254 45.8077 9.70961 54.0261 4.86265C54.1413 4.4154 54.0786 3.98847 53.9498 3.56324C53.8465 3.22272 53.6805 2.91099 53.4636 2.63146C52.6538 1.58447 42.2127 5.74192 42.1179 5.76394C41.5148 5.90794 41.142 6.29421 40.9845 6.88716C40.8659 7.33272 41.0692 6.74994 40.5593 9.24033C40.1628 11.1801 39.785 13.1267 39.4665 15.0801C39.2022 16.7014 38.943 18.3193 38.7025 19.9389C38.5009 21.279 38.3264 22.6224 38.1451 23.9625C37.996 25.0637 37.852 26.1666 37.7114 27.2695C37.5877 28.2521 37.4742 29.2364 37.3556 30.219C37.254 31.039 37.154 31.8572 37.0558 32.6772C36.9795 33.3108 36.9084 33.9461 36.8338 34.5797C36.7559 35.2472 36.678 35.913 36.6 36.5822C36.5763 36.7686 36.5492 36.9532 36.5306 37.1396C36.5001 37.4479 36.4679 37.7563 36.3933 38.0578C36.2307 38.6914 36.2883 39.3233 36.4306 39.9485C36.6254 40.7956 36.9609 41.5783 37.5064 42.2644C37.7842 42.6134 38.1061 42.9217 38.5076 43.1487C38.6635 43.2351 38.838 43.286 39.0125 43.3351C39.0955 43.3588 39.1785 43.3927 39.2598 43.4147C39.5462 43.4977 39.8308 43.5774 40.1154 43.6587C40.1679 43.6739 40.2187 43.6959 40.2696 43.7163H41.5249C41.5554 43.701 41.5808 43.6756 41.6113 43.6705C42.7803 43.4621 43.79 42.9183 44.6947 42.1695C45.9365 41.1429 46.8107 39.8519 47.3918 38.3543C47.7628 37.3954 48.0237 36.406 48.1118 35.3777C48.1745 34.6746 48.1626 33.9698 48.0931 33.2651C47.9983 32.296 47.7425 31.3625 47.507 30.4206C46.8869 27.9166 46.0788 25.4737 45.1013 23.0866C45.0318 22.924 44.9522 22.763 45.0555 22.5682C45.0809 22.5547 45.1148 22.5275 45.1572 22.5106C46.6108 21.9465 47.8983 21.1146 49.0893 20.1168C50.1414 19.2375 51.0918 18.26 51.9999 17.2384C52.2709 16.9352 52.5318 16.6217 52.7995 16.3134C52.8469 16.2558 52.9011 16.2033 52.9723 16.1254C53.0062 16.2423 52.9604 16.3202 52.9401 16.3964C52.6945 17.2977 52.4302 18.1956 52.2015 19.102C51.7627 20.8436 51.4205 22.6055 51.1646 24.3809C50.9647 25.7447 50.8207 27.1153 50.7326 28.4876C50.631 30.0835 50.609 31.681 50.7259 33.2786C50.8038 34.3663 50.941 35.4471 51.2443 36.5009C51.4238 37.1277 51.6644 37.7291 52.0066 38.2865C52.3929 38.9134 52.8774 39.4521 53.4704 39.8841C54.8392 40.8752 56.3691 41.3377 58.0886 41.1717C58.9865 41.0853 59.8472 40.7769 60.6366 40.3449C61.4786 39.8858 62.2545 39.3284 62.9729 38.6914C64.0266 37.7596 64.9381 36.7008 65.7801 35.581C66.4645 34.6712 67.0727 33.7174 67.6606 32.7433C67.7131 32.6569 67.747 32.5451 67.8808 32.4671C67.8808 32.584 67.8825 32.667 67.8808 32.75C67.8571 33.4887 67.8791 34.2256 67.9672 34.9609C67.9926 35.1727 68.0367 35.3811 68.096 35.586C68.7838 37.9257 70.2052 39.6673 72.3856 40.7871C73.0192 41.1124 73.7222 41.2919 74.4338 41.336C75.4638 41.3987 76.482 41.3377 77.468 41.0175C78.6827 40.6211 79.7466 39.9756 80.6971 39.1336C81.639 38.3001 82.4031 37.3242 83.0434 36.2485C83.8329 34.9219 84.3937 33.5022 84.7444 32.0012C84.8071 31.7403 84.9189 31.5608 85.1459 31.4049C86.2403 30.6527 87.2077 29.7548 88.0954 28.7705C88.1733 28.6841 88.2377 28.5807 88.3732 28.5096C88.3732 28.6146 88.3817 28.6909 88.3715 28.762C88.2275 29.7311 88.1394 30.7086 88.0818 31.6861C88.0378 32.4383 88.0378 33.1973 88.0869 33.9495C88.1276 34.5713 88.1903 35.1896 88.3139 35.7995C88.5681 37.0464 89.0424 38.1984 89.7929 39.2319C90.0623 39.5961 90.3622 39.9349 90.7027 40.2331C91.6989 41.1073 92.8678 41.4444 94.1672 41.3309C94.7805 41.275 95.365 41.026 95.8275 40.6194C96.2104 40.2822 96.5475 39.8994 96.8474 39.4826C97.1574 39.0506 97.4166 38.5915 97.6419 38.112C98.1265 37.0837 98.4873 36.0096 98.7584 34.905C98.899 34.3273 99.0311 33.7479 99.1717 33.1702C99.1904 33.0872 99.2158 33.0042 99.2548 32.8669C99.3022 32.9838 99.2954 33.055 99.2954 33.1211C99.3005 33.7886 99.3479 34.4544 99.4225 35.1185C99.4699 35.5759 99.5631 36.0299 99.7071 36.4687C99.9595 37.2395 100.264 37.99 100.685 38.688C101 39.2098 101.369 39.6893 101.808 40.1111C102.592 40.8735 103.539 41.2699 104.622 41.3394C105.218 41.3767 105.811 41.3631 106.394 41.2106C106.738 41.1242 107.065 40.9989 107.377 40.8311C108.015 40.4889 108.571 40.0434 109.05 39.5046C109.618 38.8642 110.077 38.1527 110.446 37.3852C110.853 36.5399 111.197 35.6725 111.48 34.7779C112.14 32.6907 112.823 30.6086 113.477 28.5231C113.533 28.3469 113.58 28.1369 113.631 27.9607C113.657 27.8709 113.691 27.7862 113.728 27.6845C113.808 27.7235 113.877 27.7574 113.943 27.793C114.59 28.1437 115.281 28.4181 116.008 28.5214C117.96 28.7993 119.608 28.2893 120.996 27.073C121.118 26.9645 121.23 26.851 121.34 26.7307C122.075 25.9396 122.803 25.145 123.537 24.3505C123.758 24.1099 123.917 23.8659 124.011 23.6186V23.09C123.991 23.0426 123.964 22.9934 123.952 22.9409L123.954 22.9426ZM59.2305 22.6631C59.7811 20.6826 60.3385 18.7005 61.0398 16.7657C61.643 15.0987 62.3376 13.4723 63.1914 11.9137C63.476 11.397 63.7945 10.9006 64.1571 10.4381C64.3231 10.2263 64.4942 10.023 64.706 9.81296C64.7449 9.89936 64.7771 9.95527 64.7924 10.0146C65.0177 10.8447 65.1346 11.6918 65.1481 12.5558C65.1854 15.0004 64.5603 17.257 63.21 19.3019C62.2528 20.7521 61.0127 21.9007 59.4829 22.7292C59.4067 22.7698 59.3254 22.7986 59.2423 22.8308C59.2373 22.8325 59.2271 22.8223 59.1966 22.8071C59.2085 22.7613 59.2169 22.7105 59.2305 22.6631ZM44.7743 34.4679C44.6913 35.0609 44.5354 35.6318 44.3016 36.1807C44.0933 36.672 43.8019 37.1108 43.4359 37.4987C43.0175 37.9392 42.4991 38.1832 41.9112 38.2984C41.8705 38.3052 41.8265 38.2984 41.796 38.2984C41.7265 38.2425 41.7553 38.1883 41.7638 38.1374C42.0925 36.5195 42.416 34.9016 42.7481 33.2854C43.0852 31.637 43.4325 29.9886 43.7765 28.3436C43.7917 28.2589 43.8171 28.1758 43.8476 28.0606C43.8984 28.1182 43.9171 28.1318 43.9255 28.1521C44.405 29.1991 44.7472 30.2817 44.8488 31.4388C44.9353 32.4536 44.9115 33.4616 44.7726 34.4696L44.7743 34.4679ZM79.257 34.1104C78.8606 34.6678 78.4116 35.1828 77.8814 35.6216C77.6544 35.8097 77.4138 35.9791 77.1512 36.118C76.9005 36.2519 76.6294 36.3399 76.3499 36.3908C75.4384 36.5602 74.7963 36.3145 74.449 35.6233C74.3084 35.3472 74.2169 35.0541 74.1559 34.7508C74.0662 34.3171 74.0204 33.88 74.0594 33.3904C74.1966 33.4463 74.2966 33.4853 74.3965 33.526C75.0386 33.7919 75.6959 34.0088 76.3888 34.0952C76.7836 34.146 77.1834 34.1579 77.5764 34.1511C78.0508 34.1392 78.5218 34.0783 78.991 34.0105C79.0876 33.9969 79.191 33.9868 79.3129 33.9715C79.2875 34.041 79.2807 34.0816 79.257 34.1121V34.1104ZM79.3299 30.5866C78.9673 30.9051 78.5794 31.0966 78.1745 31.1863C77.9271 31.2389 77.6781 31.2558 77.429 31.2897C76.9936 31.2711 76.5667 31.1931 76.1483 30.9898C75.9009 30.8678 75.6654 30.6984 75.4503 30.4612C75.0538 30.0259 74.7692 29.4397 74.6015 28.7027C74.3948 27.798 74.3542 26.8663 74.4575 25.9158C74.5524 25.0501 74.798 24.3115 75.1623 23.6796C75.5807 22.9613 76.0788 22.453 76.6514 22.1769C77.4612 21.7872 78.2761 21.7804 79.091 22.1514C79.4535 22.3175 79.7839 22.5919 80.0804 22.9782C80.5446 23.5847 82.0337 28.0268 79.3299 30.5883V30.5866Z" fill="#FAF9F6"/>
<path id="Vector_2" d="M0.487305 30.6949C0.524576 30.5137 0.58726 30.3324 0.59573 30.1511C0.66519 28.6196 0.848159 27.1 1.07179 25.5854C1.46652 22.9036 1.99849 20.2488 2.72528 17.6364C2.87267 17.1062 3.03022 16.5793 3.19625 16.0541C3.33009 15.634 3.51983 15.2358 3.74854 14.8563C4.14836 14.1905 4.72268 13.7551 5.47827 13.5739C5.7883 13.4993 6.10341 13.44 6.42022 13.4095C7.15717 13.3384 7.89413 13.3401 8.62261 13.5027C8.914 13.5688 9.19354 13.6654 9.45105 13.8195C9.96268 14.1262 10.2439 14.5768 10.271 15.1715C10.2846 15.49 10.2744 15.8118 10.2405 16.1286C10.0796 17.6076 9.80005 19.068 9.50526 20.525C9.18507 22.1107 8.84963 23.6947 8.52604 25.2804C8.28209 26.4782 8.07371 27.6827 7.91107 28.8941C7.79756 29.7344 7.71963 30.5797 7.75182 31.4302C7.77045 31.9486 7.81958 32.4636 7.95681 32.9651C8.01949 33.1972 8.10081 33.4293 8.20077 33.6478C8.52096 34.3458 9.1173 34.666 9.91694 34.6271C10.2642 34.6101 10.5844 34.4881 10.8894 34.3306C11.4417 34.046 11.9228 33.6631 12.3887 33.2412C12.3887 33.1193 12.3887 32.999 12.3887 32.8787C12.3887 31.8097 12.3752 30.7407 12.3887 29.6734C12.404 28.6704 12.4785 27.6709 12.5649 26.6713C12.6649 25.5193 12.8072 24.3707 12.9918 23.2305C13.3408 21.0874 13.8287 18.9748 14.4861 16.9046C14.586 16.5895 14.6978 16.2794 14.8232 15.9745C14.9774 15.595 15.1959 15.2511 15.4551 14.9326C15.8905 14.3989 16.4343 14.0194 17.0781 13.7772C17.544 13.601 18.0268 13.4993 18.5215 13.4383C19.0484 13.3723 19.577 13.3553 20.1039 13.3841C20.3885 13.3994 20.6748 13.4366 20.9509 13.5044C21.5371 13.6467 21.7963 13.9788 21.837 14.5819C21.8641 14.9698 21.8048 15.351 21.737 15.7305C21.5371 16.8487 21.2389 17.9431 20.9577 19.0409C20.5799 20.5131 20.2258 21.9904 19.948 23.4846C19.7972 24.2961 19.699 25.1178 19.5855 25.9344C19.5363 26.2834 19.5024 26.6341 19.4669 26.9848C19.4584 27.0661 19.4669 27.1491 19.4669 27.2677C19.5821 27.1508 19.6058 27.0288 19.6481 26.9221C20.2225 25.4905 20.8611 24.0878 21.5913 22.7291C22.6434 20.7689 23.9089 18.9596 25.4286 17.3298C26.1147 16.5945 26.8449 15.9101 27.6632 15.3239C28.7271 14.5616 29.8791 13.9703 31.1446 13.6179C32.0256 13.3723 32.9201 13.3045 33.8265 13.4451C34.1755 13.4993 34.516 13.5908 34.8396 13.7348C35.7731 14.1516 36.322 14.8834 36.5693 15.8576C36.6591 16.21 36.7048 16.5708 36.715 16.9351C36.7336 17.5873 36.6879 18.2345 36.6133 18.8816C36.4998 19.8659 36.3745 20.8485 36.2389 21.8312C36.1339 22.5952 36.0018 23.3542 35.8866 24.1166C35.7578 24.9653 35.629 25.8141 35.5138 26.6663C35.3834 27.6268 35.2546 28.5874 35.1479 29.5497C35.0564 30.3815 34.9887 31.2167 34.9243 32.0503C34.7972 33.6987 34.7803 35.3522 34.7667 37.004C34.7616 37.6206 34.7057 38.2339 34.5431 38.8353C34.2314 39.9874 33.4978 40.6955 32.3373 40.9564C31.3886 41.1699 30.4382 41.1868 29.4895 40.9598C28.4238 40.7057 27.7343 40.0416 27.3921 39.0081C27.2278 38.5134 27.1515 38.0018 27.1312 37.4834C27.1024 36.6888 27.1532 35.8977 27.2244 35.1065C27.2888 34.3831 27.3667 33.6597 27.4565 32.938C27.57 32.0198 27.6987 31.1049 27.8275 30.1884C27.9664 29.1956 28.1206 28.2062 28.2578 27.2135C28.3662 26.4274 28.4713 25.6413 28.556 24.8535C28.6102 24.3402 28.6288 23.8218 28.6576 23.3051C28.6678 23.1289 28.6492 22.9527 28.5831 22.785C28.4611 22.4732 28.1968 22.3309 27.8698 22.4055C27.6953 22.4444 27.5327 22.5207 27.3972 22.6342C27.1854 22.8104 26.9686 22.9832 26.7873 23.1882C26.4891 23.527 26.2045 23.8777 25.9385 24.2436C25.1457 25.333 24.4951 26.5087 23.8886 27.7099C22.4384 30.5831 21.3389 33.5835 20.5884 36.7126C20.419 37.419 20.2174 38.1187 19.9311 38.7879C19.8142 39.0607 19.6837 39.3283 19.5414 39.5892C19.1467 40.3194 18.5368 40.7701 17.7337 40.9683C17.1069 41.1241 16.4699 41.1665 15.8329 41.0665C15.0841 40.9496 14.4657 40.5905 13.9914 39.9975C13.8406 39.8095 13.7186 39.5977 13.5831 39.3978C13.5424 39.3368 13.5018 39.2741 13.4509 39.1928C13.334 39.2639 13.2307 39.3232 13.1307 39.3876C12.3294 39.8993 11.4925 40.3347 10.5912 40.6464C8.87165 41.2427 7.13684 41.2834 5.39695 40.7548C4.0806 40.355 3.05733 39.5553 2.3136 38.3982C1.70032 37.4427 1.29203 36.4025 1.02096 35.303C0.792252 34.3696 0.660108 33.4225 0.610978 32.4636C0.599119 32.2468 0.619448 32.0215 0.490693 31.8249C0.487305 31.4438 0.487305 31.0694 0.487305 30.6949Z" fill="#FAF9F6"/>
<path id="Vector_3" d="M8.34456 9.49946C7.63472 9.48252 6.93673 9.40459 6.25398 9.20468C5.85078 9.08609 5.4679 8.92006 5.11552 8.68796C4.47004 8.26273 4.00415 7.68672 3.7297 6.96671C3.39426 6.08067 3.3248 5.16583 3.49421 4.23574C3.64838 3.38697 4.0482 2.66357 4.64454 2.0469C5.32559 1.34382 6.13539 0.84405 7.07395 0.572986C8.39539 0.191802 9.7236 0.185026 11.0518 0.547574C11.6414 0.708518 12.1818 0.979582 12.6646 1.35738C13.4219 1.95202 13.8438 2.73472 13.9725 3.68514C14.0776 4.4492 14.0183 5.20479 13.8116 5.94344C13.4473 7.24624 12.6257 8.1831 11.4398 8.81163C10.8502 9.12505 10.2166 9.31141 9.55758 9.39781C9.15437 9.45033 8.74777 9.46727 8.34118 9.49946H8.34456Z" fill="#F05161"/>
</g>
<defs>
<clipPath id="clip0_207_9989">
<rect width="123.526" height="43.4363" fill="white" transform="translate(0.487305 0.281738)"/>
</clipPath>
</defs>
</svg>
