<svg width="125" height="44" viewBox="0 0 125 44" fill="none" xmlns="http://www.w3.org/2000/svg">
<g id="Layer_1" clip-path="url(#clip0_26_7910)">
<path id="Vector" d="M124.204 23.1479C124.077 22.5618 123.552 22.1501 122.962 22.1772C122.757 22.1857 122.569 22.2483 122.406 22.3652C122.223 22.4957 122.051 22.6448 121.891 22.804C121.483 23.2157 121.063 23.6138 120.609 23.9696C120.07 24.3914 119.518 24.798 118.91 25.1098C118.705 25.2148 118.484 25.291 118.269 25.3707C118.168 25.4096 118.057 25.435 117.932 25.3893C117.956 25.3385 117.969 25.2876 117.996 25.2453C118.494 24.4457 118.715 23.5715 118.733 22.6397C118.759 21.4487 118.457 20.3509 117.791 19.3564C117.215 18.4958 116.423 17.9079 115.47 17.52C114.718 17.215 114.027 17.3438 113.383 17.8114C113.068 18.0384 112.826 18.3298 112.619 18.6584C112.38 19.0345 112.211 19.453 112.087 19.8816C111.887 20.5661 111.713 21.2573 111.603 21.9637C111.452 22.9345 111.472 23.9018 111.737 24.8539C111.782 25.02 111.789 25.1962 111.742 25.3605C111.186 27.3223 110.537 29.252 109.765 31.1375C109.285 32.315 108.677 33.4263 107.906 34.4496C107.623 34.8257 107.305 35.173 106.962 35.4915C106.905 35.5474 106.846 35.5965 106.783 35.6423C106.688 35.7067 106.588 35.6728 106.542 35.5627C106.515 35.4932 106.486 35.4187 106.48 35.3424C106.439 34.9392 106.375 34.5326 106.369 34.1277C106.364 33.589 106.39 33.0469 106.436 32.5098C106.488 31.8813 106.566 31.2544 106.635 30.6259C106.713 29.9144 106.823 29.2079 106.973 28.5048C107.25 27.197 107.527 25.8857 107.937 24.61C108.125 24.0238 108.343 23.4478 108.557 22.8701C108.828 22.1382 108.772 21.3132 108.369 20.644C108.031 20.0815 107.591 19.6106 107.051 19.2345C106.298 18.7093 105.468 18.3721 104.562 18.2298C104.503 18.2214 104.443 18.218 104.382 18.2112C104.113 18.1807 103.843 18.2417 103.623 18.3942C103.171 18.7059 102.788 19.082 102.461 19.5242C102.007 20.1391 101.648 20.81 101.387 21.5266C101.045 22.4567 100.714 23.3902 100.411 24.3338C99.9334 25.8094 99.4878 27.2969 99.0185 28.7759C98.7424 29.6365 98.451 30.4904 98.1511 31.3425C97.8021 32.3319 97.3515 33.2756 96.7535 34.1413C96.5248 34.4733 96.2554 34.78 96.0114 35.1052C95.9725 35.1578 95.9454 35.2171 95.9166 35.2747C95.8335 35.4475 95.6963 35.5542 95.5269 35.6287C95.4253 35.6745 95.305 35.6287 95.2541 35.5305C95.2203 35.4644 95.1898 35.3932 95.1779 35.3187C95.1322 35.0256 95.0746 34.7325 95.0559 34.4377C95.0119 33.7889 95.0627 33.1383 95.1406 32.4929C95.2186 31.8321 95.3084 31.1731 95.388 30.5124C95.4574 29.9381 95.6099 29.0046 95.7302 28.4354C96.0063 27.1224 96.2876 25.8111 96.7009 24.5354C96.8771 23.9899 97.0804 23.4546 97.282 22.9192C97.5971 22.0789 97.5412 21.281 97.0567 20.5186C96.745 20.029 96.357 19.6122 95.8793 19.2819C95.1017 18.7381 94.2444 18.3806 93.3008 18.2349C93.1822 18.2163 93.0602 18.2146 92.9399 18.2095C92.6858 18.1959 92.4554 18.2722 92.2657 18.4314C92.0979 18.572 91.9336 18.7228 91.8049 18.8973C91.6151 19.1548 91.4406 19.4259 91.2898 19.7054C90.9967 20.2594 90.7392 20.8303 90.4546 21.3877C90.4241 21.447 90.3902 21.5046 90.353 21.5605C89.7058 22.5414 89.0586 23.5206 88.4013 24.4914C87.6694 25.5723 86.8156 26.565 85.855 27.4477C85.7822 27.5171 85.7076 27.5832 85.6297 27.6476C85.6161 27.6611 85.5907 27.6611 85.5704 27.6679C85.5009 27.6425 85.5196 27.5781 85.5196 27.5273C85.5145 26.7988 85.4721 26.0737 85.3925 25.352C85.2739 24.2441 85.0926 23.1513 84.6725 22.106C84.0473 20.5542 83.0359 19.331 81.6061 18.4518C80.864 17.9943 80.061 17.708 79.2089 17.5522C78.6007 17.4403 77.9823 17.3912 77.3605 17.3963C76.383 17.4031 75.4157 17.647 74.5618 18.1214C72.9964 18.9888 71.8308 20.2238 71.0176 21.7808C70.9329 21.9468 70.8601 22.1162 70.7178 22.2517C70.6517 22.3161 70.6144 22.4195 70.5687 22.5059C69.2049 25.0149 67.6124 27.3715 65.8234 29.5942C65.3558 30.177 64.8577 30.7394 64.3173 31.2612C63.4228 32.1235 62.4537 32.8825 61.3305 33.3823C60.8239 33.6093 60.2954 33.7567 59.7329 33.7398C59.5669 33.7347 59.4042 33.7093 59.2416 33.6872C58.9231 33.6415 58.6876 33.4653 58.5504 33.1824C58.4487 32.9757 58.3674 32.7571 58.3047 32.5369C58.1624 32.0337 58.1116 31.517 58.1099 30.9986C58.1031 30.0075 58.1607 29.0199 58.3318 28.0373C58.4623 27.28 58.5894 26.5193 58.7588 25.7671C58.774 25.7027 58.7927 25.64 58.8113 25.574C58.9621 25.4825 59.1213 25.43 59.2975 25.3995C60.3259 25.2368 61.3339 24.9403 62.2267 24.4033C64.258 23.1852 65.7912 21.5182 66.9415 19.5072C67.6785 18.218 68.2003 16.8406 68.6035 15.4158C68.8678 14.4925 69.0643 13.5574 69.1778 12.6035C69.3438 11.2059 69.3354 9.8099 69.0626 8.42578C68.9 7.61089 68.634 6.83328 68.2155 6.10818C67.6073 5.04934 66.7196 4.29883 65.5337 3.87529C65.1898 3.75162 64.8272 3.68555 64.4596 3.66691C62.6943 3.57204 61.1086 4.04979 59.7109 5.12219C59.0959 5.59486 58.5538 6.14207 58.0608 6.73841C56.8952 8.14794 55.96 9.69978 55.1892 11.3516C54.9097 11.9513 54.6589 12.5629 54.398 13.1694C54.3591 13.2558 54.3184 13.3456 54.271 13.4523C54.1981 13.4286 54.1371 13.4066 54.0761 13.393C53.9592 13.3625 53.839 13.3354 53.7221 13.3168C53.5408 13.2863 53.3815 13.332 53.2257 13.4405C52.3854 14.0046 51.5383 14.5637 50.6946 15.1228C49.3546 16.0105 45.9815 17.9215 45.3648 18.0147C44.8007 18.0994 44.3229 17.5928 44.4517 17.0338C45.5037 12.5307 46.0577 9.91494 54.2761 5.06798C54.3913 4.62072 54.3286 4.19379 54.1998 3.76856C54.0965 3.42804 53.9305 3.11632 53.7136 2.83678C52.9038 1.7898 42.4627 5.94724 42.3679 5.96926C41.7648 6.11327 41.392 6.49953 41.2345 7.09248C41.1159 7.53804 41.3192 6.95526 40.8093 9.44566C40.4128 11.3855 40.035 13.332 39.7165 15.2854C39.4522 16.9067 39.193 18.5246 38.9525 20.1442C38.7509 21.4843 38.5764 22.8277 38.3951 24.1678C38.246 25.269 38.102 26.3719 37.9614 27.4748C37.8377 28.4574 37.7242 29.4417 37.6056 30.4243C37.504 31.2443 37.404 32.0625 37.3058 32.8825C37.2295 33.5161 37.1584 34.1514 37.0838 34.785C37.0059 35.4525 36.928 36.1183 36.85 36.7875C36.8263 36.9739 36.7992 37.1586 36.7806 37.3449C36.7501 37.6532 36.7179 37.9616 36.6433 38.2631C36.4807 38.8967 36.5383 39.5287 36.6806 40.1538C36.8754 41.0009 37.2109 41.7836 37.7564 42.4697C38.0342 42.8187 38.3561 43.127 38.7576 43.3541C38.9135 43.4405 39.088 43.4913 39.2625 43.5404C39.3455 43.5641 39.4285 43.598 39.5098 43.62C39.7962 43.703 40.0808 43.7827 40.3654 43.864C40.4179 43.8792 40.4687 43.9013 40.5196 43.9216H41.7749C41.8054 43.9063 41.8308 43.8809 41.8613 43.8759C43.0303 43.6675 44.04 43.1236 44.9447 42.3748C46.1865 41.3482 47.0607 40.0572 47.6418 38.5596C48.0128 37.6007 48.2737 36.6113 48.3618 35.583C48.4245 34.8799 48.4126 34.1752 48.3431 33.4704C48.2483 32.5013 47.9925 31.5679 47.757 30.6259C47.1369 28.122 46.3288 25.679 45.3513 23.2919C45.2818 23.1293 45.2022 22.9684 45.3055 22.7735C45.3309 22.76 45.3648 22.7329 45.4072 22.7159C46.8608 22.1518 48.1483 21.32 49.3393 20.3221C50.3914 19.4428 51.3418 18.4653 52.2499 17.4437C52.5209 17.1405 52.7818 16.8271 53.0495 16.5187C53.0969 16.4611 53.1511 16.4086 53.2223 16.3307C53.2562 16.4476 53.2104 16.5255 53.1901 16.6017C52.9445 17.503 52.6802 18.4009 52.4515 19.3073C52.0127 21.0489 51.6705 22.8108 51.4146 24.5863C51.2147 25.9501 51.0707 27.3206 50.9826 28.6929C50.881 30.2888 50.859 31.8864 50.9759 33.4839C51.0538 34.5716 51.191 35.6525 51.4943 36.7062C51.6738 37.333 51.9144 37.9345 52.2566 38.4918C52.6429 39.1187 53.1274 39.6574 53.7204 40.0894C55.0892 41.0805 56.6191 41.543 58.3386 41.377C59.2365 41.2906 60.0972 40.9822 60.8866 40.5502C61.7286 40.0911 62.5045 39.5337 63.2229 38.8967C64.2766 37.965 65.1881 36.9061 66.0301 35.7863C66.7145 34.8765 67.3227 33.9227 67.9106 32.9486C67.9631 32.8622 67.997 32.7504 68.1308 32.6724C68.1308 32.7893 68.1325 32.8724 68.1308 32.9554C68.1071 33.694 68.1291 34.431 68.2172 35.1662C68.2426 35.378 68.2867 35.5864 68.346 35.7914C69.0338 38.131 70.4552 39.8726 72.6356 40.9924C73.2692 41.3177 73.9722 41.4973 74.6838 41.5413C75.7138 41.604 76.732 41.543 77.718 41.2228C78.9327 40.8264 79.9966 40.1809 80.9471 39.3389C81.889 38.5054 82.6531 37.5296 83.2934 36.4538C84.0829 35.1273 84.6437 33.7076 84.9944 32.2066C85.0571 31.9457 85.1689 31.7661 85.3959 31.6102C86.4903 30.858 87.4577 29.9601 88.3454 28.9758C88.4233 28.8894 88.4877 28.7861 88.6232 28.7149C88.6232 28.8199 88.6317 28.8962 88.6215 28.9673C88.4775 29.9364 88.3894 30.9139 88.3318 31.8914C88.2878 32.6436 88.2878 33.4026 88.3369 34.1548C88.3776 34.7766 88.4403 35.3949 88.5639 36.0048C88.8181 37.2517 89.2924 38.4038 90.0429 39.4372C90.3123 39.8014 90.6122 40.1403 90.9527 40.4384C91.9489 41.3126 93.1178 41.6497 94.4172 41.5362C95.0305 41.4803 95.615 41.2313 96.0775 40.8247C96.4604 40.4876 96.7975 40.1047 97.0974 39.6879C97.4074 39.2559 97.6666 38.7968 97.8919 38.3173C98.3765 37.289 98.7373 36.2149 99.0084 35.1103C99.149 34.5326 99.2811 33.9532 99.4217 33.3755C99.4404 33.2925 99.4658 33.2095 99.5048 33.0723C99.5522 33.1892 99.5454 33.2603 99.5454 33.3264C99.5505 33.9939 99.5979 34.6597 99.6725 35.3238C99.7199 35.7812 99.8131 36.2352 99.9571 36.674C100.21 37.4449 100.514 38.1954 100.935 38.8934C101.25 39.4152 101.619 39.8946 102.058 40.3164C102.842 41.0788 103.789 41.4752 104.872 41.5447C105.468 41.582 106.061 41.5684 106.644 41.4159C106.988 41.3295 107.315 41.2042 107.627 41.0365C108.265 40.6942 108.821 40.2487 109.3 39.7099C109.868 39.0695 110.327 38.358 110.696 37.5906C111.103 36.7452 111.447 35.8778 111.73 34.9833C112.39 32.8961 113.073 30.814 113.727 28.7285C113.783 28.5523 113.83 28.3422 113.881 28.166C113.907 28.0762 113.941 27.9915 113.978 27.8899C114.058 27.9288 114.127 27.9627 114.193 27.9983C114.84 28.349 115.531 28.6234 116.258 28.7268C118.21 29.0046 119.858 28.4947 121.246 27.2783C121.368 27.1698 121.48 27.0563 121.59 26.9361C122.325 26.1449 123.053 25.3503 123.787 24.5558C124.008 24.3152 124.167 24.0712 124.261 23.8239V23.2953C124.241 23.2479 124.214 23.1988 124.202 23.1462L124.204 23.1479ZM59.4805 22.8684C60.0311 20.8879 60.5885 18.9058 61.2898 16.9711C61.893 15.304 62.5876 13.6776 63.4414 12.119C63.726 11.6023 64.0445 11.1059 64.4071 10.6434C64.5731 10.4317 64.7442 10.2284 64.956 10.0183C64.9949 10.1047 65.0271 10.1606 65.0424 10.2199C65.2677 11.05 65.3846 11.8971 65.3981 12.7611C65.4354 15.2058 64.8103 17.4624 63.46 19.5072C62.5028 20.9574 61.2627 22.106 59.7329 22.9345C59.6567 22.9751 59.5754 23.0039 59.4923 23.0361C59.4873 23.0378 59.4771 23.0277 59.4466 23.0124C59.4585 22.9667 59.4669 22.9158 59.4805 22.8684ZM45.0243 34.6732C44.9413 35.2662 44.7854 35.8371 44.5516 36.386C44.3433 36.8773 44.0519 37.3161 43.6859 37.7041C43.2675 38.1445 42.7491 38.3885 42.1612 38.5037C42.1205 38.5105 42.0765 38.5037 42.046 38.5037C41.9765 38.4478 42.0053 38.3936 42.0138 38.3428C42.3425 36.7248 42.666 35.1069 42.9981 33.4907C43.3352 31.8423 43.6825 30.1939 44.0265 28.5489C44.0417 28.4642 44.0671 28.3812 44.0976 28.266C44.1484 28.3236 44.1671 28.3371 44.1755 28.3574C44.655 29.4044 44.9972 30.487 45.0988 31.6441C45.1853 32.6589 45.1615 33.6669 45.0226 34.6749L45.0243 34.6732ZM79.507 34.3158C79.1106 34.8731 78.6616 35.3882 78.1314 35.827C77.9044 36.015 77.6638 36.1844 77.4012 36.3233C77.1505 36.4572 76.8794 36.5453 76.5999 36.5961C75.6884 36.7655 75.0463 36.5199 74.699 35.8286C74.5584 35.5525 74.4669 35.2594 74.4059 34.9562C74.3162 34.5225 74.2704 34.0854 74.3094 33.5958C74.4466 33.6517 74.5466 33.6906 74.6465 33.7313C75.2886 33.9973 75.9459 34.2141 76.6388 34.3005C77.0336 34.3513 77.4334 34.3632 77.8264 34.3564C78.3008 34.3446 78.7718 34.2836 79.241 34.2158C79.3376 34.2023 79.441 34.1921 79.5629 34.1768C79.5375 34.2463 79.5307 34.287 79.507 34.3175V34.3158ZM79.5799 30.7919C79.2173 31.1104 78.8294 31.3019 78.4245 31.3917C78.1771 31.4442 77.9281 31.4611 77.679 31.495C77.2436 31.4764 76.8167 31.3984 76.3983 31.1951C76.1509 31.0732 75.9154 30.9038 75.7003 30.6666C75.3038 30.2312 75.0192 29.645 74.8515 28.908C74.6448 28.0034 74.6042 27.0716 74.7075 26.1212C74.8024 25.2555 75.048 24.5168 75.4123 23.8849C75.8307 23.1666 76.3288 22.6583 76.9014 22.3822C77.7112 21.9925 78.5261 21.9857 79.341 22.3568C79.7035 22.5228 80.0339 22.7972 80.3304 23.1835C80.7946 23.79 82.2837 28.2321 79.5799 30.7936V30.7919Z" fill="#35435A"/>
<path id="Vector_2" d="M0.737305 30.9003C0.774576 30.719 0.83726 30.5377 0.84573 30.3564C0.91519 28.8249 1.09816 27.3053 1.32179 25.7907C1.71652 23.1089 2.24849 20.4541 2.97528 17.8418C3.12267 17.3115 3.28022 16.7846 3.44625 16.2594C3.58009 15.8393 3.76983 15.4412 3.99854 15.0617C4.39836 14.3959 4.97268 13.9605 5.72827 13.7792C6.0383 13.7046 6.35341 13.6454 6.67022 13.6149C7.40717 13.5437 8.14413 13.5454 8.87261 13.708C9.164 13.7741 9.44354 13.8707 9.70105 14.0248C10.2127 14.3315 10.4939 14.7821 10.521 15.3768C10.5346 15.6953 10.5244 16.0172 10.4905 16.334C10.3296 17.813 10.05 19.2733 9.75526 20.7303C9.43507 22.316 9.09963 23.9 8.77604 25.4858C8.53209 26.6835 8.32371 27.8881 8.16107 29.0994C8.04756 29.9397 7.96963 30.7851 8.00182 31.6355C8.02045 32.1539 8.06958 32.669 8.20681 33.1704C8.26949 33.4025 8.35081 33.6346 8.45077 33.8532C8.77096 34.5512 9.3673 34.8714 10.1669 34.8324C10.5142 34.8154 10.8344 34.6935 11.1394 34.5359C11.6917 34.2513 12.1728 33.8684 12.6387 33.4466C12.6387 33.3246 12.6387 33.2043 12.6387 33.084C12.6387 32.015 12.6252 30.946 12.6387 29.8787C12.654 28.8758 12.7285 27.8762 12.8149 26.8767C12.9149 25.7246 13.0572 24.576 13.2418 23.4358C13.5908 21.2927 14.0787 19.1801 14.7361 17.1099C14.836 16.7948 14.9478 16.4847 15.0732 16.1798C15.2274 15.8003 15.4459 15.4564 15.7051 15.1379C16.1405 14.6042 16.6843 14.2248 17.3281 13.9825C17.794 13.8063 18.2768 13.7046 18.7715 13.6437C19.2984 13.5776 19.827 13.5606 20.3539 13.5894C20.6385 13.6047 20.9248 13.642 21.2009 13.7097C21.7871 13.852 22.0463 14.1841 22.087 14.7872C22.1141 15.1752 22.0548 15.5564 21.987 15.9358C21.7871 17.054 21.4889 18.1484 21.2077 19.2462C20.8299 20.7184 20.4758 22.1957 20.198 23.69C20.0472 24.5015 19.949 25.3231 19.8355 26.1397C19.7863 26.4887 19.7524 26.8394 19.7169 27.1901C19.7084 27.2714 19.7169 27.3544 19.7169 27.473C19.8321 27.3561 19.8558 27.2341 19.8981 27.1274C20.4725 25.6958 21.1111 24.2931 21.8413 22.9344C22.8934 20.9742 24.1589 19.1649 25.6786 17.5351C26.3647 16.7999 27.0949 16.1154 27.9132 15.5292C28.9771 14.7669 30.1291 14.1756 31.3946 13.8232C32.2756 13.5776 33.1701 13.5098 34.0765 13.6504C34.4255 13.7046 34.766 13.7961 35.0896 13.9401C36.0231 14.3569 36.572 15.0888 36.8193 16.0629C36.9091 16.4153 36.9548 16.7761 36.965 17.1404C36.9836 17.7926 36.9379 18.4398 36.8633 19.087C36.7498 20.0713 36.6245 21.0539 36.4889 22.0365C36.3839 22.8005 36.2518 23.5595 36.1366 24.3219C36.0078 25.1707 35.879 26.0194 35.7638 26.8716C35.6334 27.8322 35.5046 28.7927 35.3979 29.755C35.3064 30.5868 35.2387 31.4221 35.1743 32.2556C35.0472 33.904 35.0303 35.5575 35.0167 37.2093C35.0116 37.8259 34.9557 38.4392 34.7931 39.0407C34.4814 40.1927 33.7478 40.9008 32.5873 41.1617C31.6386 41.3752 30.6882 41.3921 29.7395 41.1651C28.6738 40.911 27.9843 40.2469 27.6421 39.2135C27.4778 38.7188 27.4015 38.2071 27.3812 37.6887C27.3524 36.8942 27.4032 36.103 27.4744 35.3118C27.5388 34.5884 27.6167 33.865 27.7065 33.1433C27.82 32.2251 27.9487 31.3102 28.0775 30.3937C28.2164 29.4009 28.3706 28.4116 28.5078 27.4188C28.6162 26.6327 28.7213 25.8466 28.806 25.0588C28.8602 24.5455 28.8788 24.0271 28.9076 23.5104C28.9178 23.3342 28.8992 23.158 28.8331 22.9903C28.7111 22.6786 28.4468 22.5362 28.1198 22.6108C27.9453 22.6498 27.7827 22.726 27.6472 22.8395C27.4354 23.0157 27.2186 23.1885 27.0373 23.3935C26.7391 23.7323 26.4545 24.083 26.1885 24.4489C25.3957 25.5383 24.7451 26.714 24.1386 27.9152C22.6884 30.7885 21.5889 33.7888 20.8384 36.9179C20.669 37.6243 20.4674 38.324 20.1811 38.9932C20.0642 39.266 19.9337 39.5337 19.7914 39.7945C19.3967 40.5247 18.7868 40.9754 17.9837 41.1736C17.3569 41.3294 16.7199 41.3718 16.0829 41.2718C15.3341 41.155 14.7157 40.7958 14.2414 40.2028C14.0906 40.0148 13.9686 39.803 13.8331 39.6031C13.7924 39.5421 13.7518 39.4794 13.7009 39.3981C13.584 39.4693 13.4807 39.5286 13.3807 39.5929C12.5794 40.1046 11.7425 40.54 10.8412 40.8517C9.12165 41.448 7.38684 41.4887 5.64695 40.9601C4.3306 40.5603 3.30733 39.7607 2.5636 38.6036C1.95032 37.6481 1.54203 36.6079 1.27096 35.5084C1.04225 34.5749 0.910108 33.6278 0.860978 32.669C0.849119 32.4521 0.869448 32.2268 0.740693 32.0303C0.737305 31.6491 0.737305 31.2747 0.737305 30.9003Z" fill="#35435A"/>
<path id="Vector_3" d="M8.59456 9.70478C7.88472 9.68784 7.18673 9.60991 6.50398 9.41C6.10078 9.29141 5.7179 9.12538 5.36552 8.89328C4.72004 8.46805 4.25415 7.89204 3.9797 7.17203C3.64426 6.28599 3.5748 5.37115 3.74421 4.44106C3.89838 3.59229 4.2982 2.86889 4.89454 2.25222C5.57559 1.54915 6.38539 1.04937 7.32395 0.778308C8.64539 0.397125 9.9736 0.390348 11.3018 0.752896C11.8914 0.91384 12.4318 1.1849 12.9146 1.5627C13.6719 2.15735 14.0938 2.94004 14.2225 3.89046C14.3276 4.65452 14.2683 5.41011 14.0616 6.14876C13.6973 7.45156 12.8757 8.38843 11.6898 9.01696C11.1002 9.33037 10.4666 9.51673 9.80758 9.60313C9.40437 9.65565 8.99777 9.67259 8.59118 9.70478H8.59456Z" fill="#F05161"/>
</g>
<defs>
<clipPath id="clip0_26_7910">
<rect width="123.526" height="43.4363" fill="white" transform="translate(0.737305 0.487061)"/>
</clipPath>
</defs>
</svg>
