<svg width="81" height="81" viewBox="0 0 81 81" fill="none" xmlns="http://www.w3.org/2000/svg">
<rect x="0.417969" y="0.746582" width="80" height="80" rx="24" fill="#F05161" fill-opacity="0.1"/>
<g clip-path="url(#clip0_1550_5147)">
<path d="M60.9586 29.143C60.7253 28.979 60.4262 28.9388 60.158 29.0379L53.0247 31.6322C52.1404 31.9535 51.4362 32.6012 51.0423 33.4557C50.9684 33.6159 50.92 33.7823 50.8714 33.9485C49.6465 33.6003 47.3701 32.873 45.1079 31.7074C41.6894 29.9459 39.0778 30.816 36.8378 32.5245C35.7028 32.5468 34.1385 32.681 32.6007 32.8165C31.6198 32.9031 30.6928 32.9827 29.9411 33.0286C29.9226 32.5771 29.8169 32.129 29.622 31.7058C29.2281 30.8512 28.524 30.2035 27.6396 29.8823L20.5061 27.2879C20.2387 27.1896 19.9379 27.2298 19.7055 27.393C19.4713 27.5571 19.332 27.8245 19.332 28.1099V45.6099C19.332 46.0936 19.7234 46.4849 20.2071 46.4849H22.7628C23.8498 46.4849 24.8611 45.9722 25.5148 45.1444C25.863 45.4092 26.2755 45.7192 26.708 46.044C27.7292 46.8122 28.8468 47.6504 29.3373 48.0615C32.5955 50.789 36.5125 53.7344 37.2926 54.2471C38.0215 54.7256 39.334 55.2349 40.332 55.2349C40.7225 55.2349 41.7061 55.2349 42.3965 54.6513C43.1083 54.9307 43.8756 54.9171 44.5891 54.6026C45.3009 54.289 45.8769 53.6977 46.2118 52.979C46.8954 53.1191 47.6806 53.0166 48.3924 52.6594C49.0597 52.3253 49.5511 51.8194 49.8143 51.2281C50.4466 51.2862 51.1217 51.0803 51.7258 50.618C52.5889 49.9582 52.9841 48.9838 52.8723 48.0226L55.0918 46.7947C55.7418 47.6758 56.7749 48.2348 57.9012 48.2348H60.4569C60.9406 48.2348 61.3319 47.8434 61.3319 47.3598V29.86C61.332 29.5745 61.1927 29.3071 60.9586 29.143ZM24.4017 43.5993C24.1471 44.2786 23.4883 44.7349 22.7628 44.7349H21.082V29.3592L27.0412 31.5262C27.4839 31.6877 27.836 32.0116 28.0324 32.4388C28.2298 32.866 28.2469 33.3446 28.082 33.7846L24.4017 43.5993ZM50.6637 49.2279C50.3672 49.4552 49.9519 49.5817 49.7673 49.3971C49.7579 49.3877 49.7433 49.3886 49.7336 49.3796C49.7169 49.3641 49.7086 49.3431 49.6905 49.3287C49.065 48.8348 46.2622 45.9671 44.5302 44.1607C44.1961 43.8113 43.6416 43.7984 43.2938 44.1342C42.9443 44.4683 42.9323 45.0221 43.2673 45.3707C43.6738 45.795 46.9374 49.194 48.2435 50.3827C48.146 50.767 47.7898 51.0042 47.6089 51.0949C47.0484 51.376 46.464 51.329 46.2452 51.1257C46.2387 51.1196 46.229 51.1199 46.2223 51.114C46.2116 51.1045 46.2069 51.0911 46.1955 51.0821C45.1462 50.2438 42.5136 47.4462 41.9179 46.7985C41.5906 46.4422 41.0378 46.42 40.6815 46.7464C40.326 47.0737 40.3021 47.6275 40.6294 47.9829C40.6581 48.014 43.2382 50.7971 44.6872 52.0898C44.5448 52.499 44.2547 52.8378 43.8824 53.0021C43.6077 53.1242 43.178 53.1868 42.6871 52.824C41.4305 51.7585 38.9088 49.0742 38.4128 48.5434C38.0839 48.1896 37.5285 48.1717 37.1764 48.5016C36.8235 48.8314 36.8047 49.3851 37.1345 49.738C37.7225 50.3674 39.4605 52.2095 40.7817 53.4568C40.6342 53.4747 40.4792 53.485 40.332 53.485C39.7526 53.485 38.7572 53.115 38.2539 52.7843C37.6404 52.3809 33.7883 49.5065 30.4618 46.7208C29.9585 46.2986 28.8101 45.4348 27.759 44.6452C27.1957 44.2223 26.6767 43.8324 26.2942 43.5382L29.5704 34.8006C30.4208 34.7634 31.5545 34.6654 32.7544 34.5595C33.433 34.4997 34.1124 34.4414 34.7616 34.3909C33.7638 35.4152 32.2803 37.2498 32.4758 38.9695C32.5656 39.7523 32.9937 40.4043 33.7157 40.8554C35.1453 41.7501 37.7917 40.9998 39.0665 39.4319C39.8894 39.3131 40.4457 39.1029 41.0523 38.8021C42.0777 39.766 43.4526 40.8991 44.8967 42.0894C47.4107 44.1606 50.2604 46.5088 51.0141 47.8256C51.4336 48.5579 50.8517 49.0843 50.6637 49.2279ZM52.1648 46.4139C50.999 44.8543 48.4717 42.7677 46.0093 40.7385C44.3678 39.3858 42.8177 38.1083 41.8257 37.1163C41.5522 36.8445 41.1327 36.783 40.7943 36.9633C39.903 37.441 39.5015 37.6383 38.4949 37.7392C38.2265 37.7665 37.9856 37.9152 37.8421 38.1433C37.1559 39.232 35.2486 39.7497 34.6437 39.3721C34.3001 39.1567 34.2335 38.938 34.2147 38.7714C34.1301 38.0271 34.8838 36.7385 36.1339 35.4876C39.2298 32.3917 41.4429 31.7859 44.3063 33.2625C47.0268 34.6651 49.7117 35.4582 50.8388 35.7578C50.8714 35.8889 50.895 36.0213 50.9431 36.1498L54.3406 45.2102L52.1648 46.4139ZM59.5821 46.4849H57.9012C57.1758 46.4849 56.517 46.0286 56.2623 45.3493L52.582 35.5355C52.4171 35.0946 52.4342 34.6161 52.6316 34.1888C52.8281 33.7615 53.1802 33.4377 53.6227 33.2762L59.582 31.1091V46.4849H59.5821Z" fill="#F05161"/>
</g>
<defs>
<clipPath id="clip0_1550_5147">
<rect width="42" height="42" fill="white" transform="translate(19.332 20.2349)"/>
</clipPath>
</defs>
</svg>
