<svg width="81" height="81" viewBox="0 0 81 81" fill="none" xmlns="http://www.w3.org/2000/svg">
<rect x="0.472656" y="0.746582" width="80" height="80" rx="24" fill="#F05161" fill-opacity="0.1"/>
<g clip-path="url(#clip0_1550_5177)">
<path d="M52.1157 37.0256C52.9875 36.477 53.6114 35.6334 53.8795 34.6329C54.1613 33.5811 54.0167 32.4824 53.4722 31.5393C52.3749 29.6388 49.9681 28.9563 48.0427 29.971L44.3813 23.6293C43.897 22.7906 43.1123 22.1899 42.1718 21.9378C41.2311 21.6858 40.251 21.8136 39.4125 22.298C38.5737 22.7822 37.973 23.5669 37.721 24.5074C37.531 25.2162 37.5571 25.9472 37.7885 26.6234C36.0494 31.006 32.3687 35.4756 27.3714 39.2885C27.2939 39.2366 27.2082 39.1965 27.1163 39.1718C26.8962 39.1128 26.6616 39.1437 26.4642 39.2577L21.7921 41.9552C20.2203 42.8627 19.0944 44.3339 18.6217 46.0979C18.149 47.8618 18.3885 49.699 19.296 51.2708C20.5578 53.4562 22.8545 54.6792 25.2133 54.6792C26.3694 54.6792 27.5405 54.3853 28.6116 53.7669L28.879 53.6126L34.0315 60.3397C34.3874 60.8044 34.8837 61.078 35.4671 61.1308C35.5333 61.1368 35.5989 61.1398 35.6639 61.1398C36.1707 61.1398 36.6366 60.9586 37.021 60.6099L38.44 59.3223C39.2296 58.6056 39.338 57.4254 38.6922 56.5769L33.8475 50.2116C39.6019 47.8321 45.2605 46.8997 49.889 47.5799C50.5902 48.3823 51.6001 48.8228 52.633 48.8227C53.2497 48.8227 53.8743 48.6659 54.4457 48.3361C56.1827 47.3333 56.7799 45.1043 55.777 43.3673L52.1157 37.0256ZM51.9837 32.3987C52.2986 32.9442 52.3823 33.5797 52.2192 34.1881C52.07 34.7451 51.73 35.2177 51.2552 35.5355L48.9029 31.4612C50.0059 30.9191 51.3602 31.3188 51.9837 32.3987ZM25.2104 52.9608C23.4464 52.9607 21.7282 52.0459 20.7844 50.4114C20.1064 49.2372 19.9279 47.8633 20.2818 46.5428C20.6356 45.2222 21.4771 44.1216 22.6514 43.4437L26.5793 41.1759L31.68 50.0107L27.7521 52.2785C26.9509 52.7411 26.0754 52.9609 25.2104 52.9608ZM37.2849 58.0494L35.866 59.337C35.791 59.405 35.7221 59.4281 35.6217 59.4189C35.5208 59.4098 35.4575 59.375 35.3959 59.2946L30.3801 52.7459L32.6284 51.4478L37.3245 57.6179C37.4261 57.7512 37.409 57.9368 37.2849 58.0494ZM32.927 48.7329L28.3094 40.7349C33.1194 37.0856 36.792 32.8239 38.8227 28.5511L48.7352 45.7203C44.0196 45.3425 38.4923 46.392 32.927 48.7329ZM53.5862 46.8475C52.6698 47.3767 51.4943 47.0614 50.9652 46.1453L39.5695 26.4073C39.0405 25.491 39.3556 24.3153 40.2718 23.7863C40.5645 23.6173 40.8907 23.5309 41.2223 23.5309C41.3902 23.5309 41.5597 23.5531 41.7269 23.5979C42.224 23.7311 42.6381 24.0474 42.8928 24.4886L54.2884 44.2266C54.8175 45.1428 54.5024 46.3186 53.5862 46.8475ZM54.5208 30.9338C54.2834 30.5228 54.4243 29.9972 54.8353 29.7599L58.2852 27.7682C58.6962 27.5308 59.2218 27.6717 59.4591 28.0827C59.6965 28.4937 59.5556 29.0193 59.1446 29.2566L55.6947 31.2484C55.5594 31.3265 55.4116 31.3637 55.2659 31.3637C54.9688 31.3637 54.68 31.2095 54.5208 30.9338ZM50.5436 25.399L52.6446 21.7599C52.8819 21.349 53.4074 21.208 53.8185 21.4454C54.2296 21.6827 54.3704 22.2083 54.133 22.6193L52.032 26.2584C51.8729 26.5341 51.584 26.6883 51.287 26.6883C51.1412 26.6883 50.9935 26.6512 50.8581 26.573C50.447 26.3357 50.3063 25.8101 50.5436 25.399ZM62.3869 36.2864C62.3869 36.761 62.0021 37.1458 61.5275 37.1458H57.3255C56.851 37.1458 56.4662 36.761 56.4662 36.2864C56.4662 35.8117 56.851 35.427 57.3255 35.427H61.5275C62.0021 35.427 62.3869 35.8117 62.3869 36.2864Z" fill="#F05161"/>
</g>
<defs>
<clipPath id="clip0_1550_5177">
<rect width="44" height="44" fill="white" transform="translate(18.3867 19.2349)"/>
</clipPath>
</defs>
</svg>
