<svg width="610" height="471" viewBox="0 0 610 471" fill="none" xmlns="http://www.w3.org/2000/svg">
<path d="M283.756 470.31C242.976 469.445 202.877 465.469 163.655 455.27C140.491 449.22 118.495 440.749 98.2511 428.908C61.1697 407.212 34.4048 377.824 18.6379 341.09C-0.632751 295.884 -4.62314 249.209 5.10953 201.757C13.9662 158.453 36.9353 121.545 71.1943 90.0826C110.32 54.2122 156.842 28.7139 210.761 14.8843C286.675 -4.56358 362.98 -4.90932 439.284 13.5878C473.153 21.7991 504.2 35.6287 531.938 54.9036C575.443 85.2423 599.678 125.175 607.075 173.665C613.109 212.647 609.703 251.197 597.829 288.883C576.903 355.351 529.7 403.15 461.571 435.217C427.702 451.208 391.302 460.716 353.441 465.124C330.278 467.803 306.919 468.668 283.561 470.31H283.756Z" fill="#B0FF92"/>
</svg>
